<?xml version="1.0" standalone="no"?><!DOCTYPE svg PUBLIC "-//W3C//DTD SVG 1.1//EN" "http://www.w3.org/Graphics/SVG/1.1/DTD/svg11.dtd"><svg t="1729090799129" class="icon" viewBox="0 0 1024 1024" version="1.1" xmlns="http://www.w3.org/2000/svg" p-id="12214" xmlns:xlink="http://www.w3.org/1999/xlink" width="256" height="256"><path d="M253.6 751.3c-55 0-106.7-21.4-145.6-60.3-38.9-38.9-60.3-90.6-60.3-145.6h115.9c0 49.6 40.4 90 90 90s90-40.4 90-90-40.4-90-90-90H98.4L146 157.1h330.5V273H244.8l-10.6 66.6h19.4c55 0 106.7 21.4 145.6 60.3 38.9 38.9 60.3 90.6 60.3 145.6S438.1 652.1 399.2 691c-38.9 38.9-90.6 60.3-145.6 60.3z" fill="#006CB6" p-id="12215" data-spm-anchor-id="a313x.search_index.0.i2.2aad3a815P1ZND"></path><path d="M678.3 467.8v115.9h182.8c-9.1 29-25.2 55.5-47.3 77.6-36.2 36.2-84.3 56.1-135.5 56.1s-99.3-19.9-135.5-56.1-56.1-84.3-56.1-135.5 19.9-99.3 56.1-135.5 84.3-56.1 135.5-56.1v-116c-41.5 0-81.8 8.1-119.7 24.2-36.6 15.5-69.5 37.7-97.7 65.9-23.7 23.7-43.2 50.8-58 80.5 1.2 1.2 2.5 2.4 3.7 3.6 40.9 40.9 63.4 95.2 63.4 153 0 52.8-18.8 102.7-53.2 142.1 12.4 20.1 27.2 38.7 44.1 55.7 28.2 28.2 61.1 50.4 97.7 65.9 38 16.1 78.2 24.2 119.7 24.2s81.8-8.1 119.7-24.2c36.6-15.5 69.5-37.7 97.7-65.9 28.2-28.2 50.4-61.1 65.9-97.7 16.1-38 24.2-78.2 24.2-119.7v-57.9H678.3z" fill="#E7372F" p-id="12216"></path><path d="M411.1 678.1c31.3-37.1 48.4-83.6 48.4-132.7 0-55-21.4-106.7-60.3-145.6l-1.1-1.1c-17.6 38.7-27.4 81.7-27.4 127 0.1 55.5 14.7 107.5 40.4 152.4z" fill="#003479" p-id="12217"></path><path d="M734.1 388.9c-2.2-3.2-5.1-5.8-8.7-7.7-3.6-1.9-8.1-2.9-13.4-2.9-3.3 0-6.5 0.5-9.6 1.5-3.1 1-6 2.5-8.6 4.4-2.2 1.6-4.2 3.5-6 5.7V344.6h-9.5V455.3h9.5v-37.4c0-4.9 0.7-9.3 2-13.1 1.3-3.8 3.1-7 5.3-9.6 2.1-2.5 4.7-4.5 7.6-5.8 2.9-1.3 6.1-2 9.4-2 3.7 0 6.7 0.7 9 2.1 2.4 1.5 4.3 3.3 5.7 5.5 1.4 2.2 2.4 4.8 2.9 7.6 0.6 3 0.8 5.8 0.8 8.4V455.3h9.5v-44.6c0-3.8-0.4-7.6-1.3-11.3-1-3.9-2.5-7.4-4.6-10.5zM819.5 389.7c-2.9-3.4-6.6-6.2-11-8.2-4.4-2.1-9.6-3.1-15.4-3.1-5 0-9.7 1-14.1 2.9s-8.2 4.6-11.4 8.1c-3.2 3.5-5.7 7.6-7.6 12.3-1.8 4.7-2.8 9.9-2.8 15.5 0 5.7 0.9 11.1 2.6 16 1.8 4.9 4.4 9.3 7.7 12.9 3.3 3.6 7.3 6.4 11.9 8.4 4.6 2 9.6 3 15.1 3 6.4 0 12.2-1.3 17.1-3.8 4.9-2.5 9.3-6.1 12.9-10.9l1.8-2.3-2.2-1.9-2.4-2.1-2.5-2.2-2 2.6c-2.8 3.7-6.1 6.5-9.8 8.4-3.7 1.9-8.1 2.9-12.9 2.9-4.8 0-8.9-0.9-12.3-2.6-3.5-1.8-6.4-4.1-8.6-7-2.3-2.9-4-6.3-5.2-10-0.8-2.8-1.4-5.6-1.6-8.4H828.1v-5.9c0-4.4-0.7-8.8-2.1-13-1.4-4.4-3.6-8.2-6.5-11.6z m-52.3 21.4c0.2-1.5 0.7-3.2 1.2-5 1-3.1 2.6-6.1 4.7-8.9 2.1-2.8 4.8-5.2 8.1-7.1 3.2-1.9 7.1-2.8 11.7-2.8 3.8 0 7.4 0.6 10.5 1.9 3.1 1.3 5.7 3.1 7.9 5.4 2.2 2.3 4 5.2 5.3 8.5 1 2.5 1.6 5.1 1.9 8h-51.3zM849.4 344.5h-3.1V455.3h9.5V344.5h-3.1zM883.1 344.5h-3V455.3h9.4V344.5h-3.1zM983 401.8c-1.9-4.8-4.6-9-8.1-12.5s-7.7-6.2-12.5-8.1c-4.8-1.9-10.1-2.9-15.7-2.9-5.7 0-10.9 1-15.7 2.9-4.7 1.9-8.9 4.7-12.4 8.1-3.5 3.5-6.2 7.7-8.1 12.5-1.9 4.8-2.8 10.1-2.8 15.8 0 5.7 0.9 11.1 2.8 15.9 1.9 4.9 4.6 9.1 8.1 12.6s7.6 6.3 12.4 8.2c4.7 1.9 10 2.9 15.7 2.9 5.6 0 10.9-1 15.7-2.9 4.8-1.9 9-4.7 12.5-8.2 3.5-3.5 6.2-7.8 8.1-12.6 1.9-4.8 2.8-10.2 2.8-15.9 0-5.7-0.9-11-2.8-15.8z m-6.6 15.9c0 4.3-0.7 8.4-2.1 12.1-1.3 3.7-3.3 6.9-5.9 9.6-2.5 2.7-5.7 4.9-9.3 6.5-3.6 1.6-7.8 2.4-12.4 2.4-4.6 0-8.8-0.8-12.3-2.4-3.6-1.6-6.7-3.8-9.2-6.5-2.5-2.7-4.5-6-5.9-9.6-1.4-3.7-2.1-7.8-2.1-12.1 0-4.2 0.7-8.2 2.1-11.9 1.3-3.7 3.3-6.9 5.9-9.6 2.5-2.7 5.6-4.9 9.2-6.4 3.6-1.6 7.7-2.4 12.3-2.4 4.6 0 8.8 0.8 12.4 2.4 3.6 1.6 6.7 3.7 9.3 6.4 2.5 2.7 4.5 6 5.9 9.6 1.4 3.7 2.1 7.7 2.1 11.9z" fill="#006CB6" p-id="12218"></path></svg>