<svg viewBox="0 0 174.241 43.5522" xmlns="http://www.w3.org/2000/svg" xmlns:xlink="http://www.w3.org/1999/xlink" width="174.241211" height="43.552246" fill="none" customFrame="#000000">
	<path id="矢量 62" d="M162.974 22.9953L160.211 22.9953C160.105 22.5648 160.002 22.1332 159.905 21.7005C159.796 21.337 159.694 20.9718 159.598 20.6047C159.871 20.6047 160.279 20.6382 160.826 20.7032L161.542 20.7032C162.223 20.7032 162.565 20.3386 162.565 19.6074L162.565 19.2093L159.292 19.2093L159.292 22.7963L156.328 22.7963L156.328 19.2093L153.158 19.2093L153.158 22.7963L150.089 22.7963L150.089 10.0429L154.69 10.0429C154.298 9.83804 153.923 9.60547 153.565 9.34517C152.883 8.88214 152.373 8.58252 152.033 8.44843L153.361 7.05304L149.885 7.05304L149.885 4.56186L165.529 4.56186L165.529 7.25208L160.52 10.0429L165.632 10.0429L165.632 20.2045C165.632 21.998 164.746 22.9304 162.974 22.9953L162.974 22.9953ZM153.158 17.1162L156.328 17.1162L156.328 15.6224L153.158 15.6224L153.158 17.1162ZM153.158 12.136L153.158 13.6298L156.328 13.6298L156.328 12.136L153.158 12.136ZM161.337 7.05304L154.18 7.05304C154.587 7.25208 155.202 7.58522 156.019 8.05035C156.701 8.44843 157.247 8.74805 157.657 8.94709L161.337 7.05304ZM162.565 12.136L159.292 12.136L159.292 13.6298L162.565 13.6298L162.565 12.136L162.565 12.136ZM162.565 15.6224L159.292 15.6224L159.292 17.1162L162.565 17.1162L162.565 15.6224L162.565 15.6224ZM143.342 5.36013L145.999 3.66512C146.203 3.86626 146.476 4.1994 146.818 4.66243C147.711 5.76055 148.563 6.88985 149.373 8.05035L146.511 9.84383C145.542 8.28799 144.485 6.79343 143.342 5.36013L143.342 5.36013ZM142.932 15.1237L142.932 12.0354L148.147 12.0354L148.147 21.7005C149.169 23.0288 150.907 23.693 153.361 23.693C156.838 23.7601 161.404 23.7601 167.063 23.693C166.585 24.7553 166.175 25.7191 165.835 26.5823C161.064 26.5152 159.189 26.4817 160.211 26.4817L153.259 26.4817C150.395 26.4817 148.25 25.7505 146.818 24.2901C146.203 24.8223 145.351 25.7505 144.261 27.0809L142.829 23.5924C143.169 23.2614 143.852 22.7313 144.874 21.998C144.122 22.4652 144.225 22.3647 145.181 21.7005L145.181 15.1237L142.932 15.1237ZM138.944 26.8819C136.489 25.0214 134.785 22.4317 133.832 19.1087C133.149 22.3647 131.478 24.9878 128.821 26.9804C128.072 26.053 127.288 25.1563 126.47 24.2901C129.127 22.7627 130.83 20.3721 131.581 17.1162L127.185 17.1162L127.185 14.3275L131.888 14.3275L131.888 13.7283C131.955 12.7331 131.991 11.8364 131.991 11.0381L127.798 11.0381L127.798 8.24939L130.15 8.24939C129.934 7.92399 129.729 7.59156 129.537 7.25208C128.924 6.19192 128.445 5.42717 128.105 4.96204L130.559 3.66512C131.378 4.66243 132.194 5.82526 133.013 7.15361L130.662 8.24939L133.933 8.24939C134.888 6.722 135.704 5.16109 136.387 3.56665L139.557 4.86147C138.74 6.05783 138.024 7.18713 137.411 8.24939L139.863 8.24939L139.863 11.0381L135.058 11.0381L135.058 14.3275L140.682 14.3275L140.682 17.1162L135.671 17.1162C136.626 20.2401 138.364 22.4967 140.887 23.8921C140.205 24.6882 139.556 25.6855 138.943 26.8819L138.944 26.8819ZM126.264 19.8064C126.673 19.6744 127.15 19.576 127.696 19.5089C127.628 19.9741 127.559 20.6718 127.492 21.5999C127.436 21.9301 127.402 22.2626 127.389 22.5972C127.047 22.5972 126.673 22.6643 126.264 22.7963L126.264 26.8819L123.3 26.8819L123.3 23.2949C123.027 23.362 122.617 23.429 122.072 23.494C121.186 23.693 119.55 23.9591 117.163 24.2901L116.55 21.2018C117.027 21.2018 117.47 21.1369 117.879 21.0028L117.879 7.85131L116.857 7.85131L116.857 4.96204L127.286 4.96204L127.286 7.85131L126.264 7.85131L126.264 19.8064L126.264 19.8064ZM123.3 7.85131L120.743 7.85131L120.743 10.2419L123.3 10.2419L123.3 7.85131L123.3 7.85131ZM123.3 12.8316L120.743 12.8316L120.743 15.3227L123.3 15.3227L123.3 12.8316L123.3 12.8316ZM123.3 17.9145L120.743 17.9145L120.743 20.7032C121.182 20.6119 121.625 20.5455 122.072 20.5041C122.617 20.3721 123.027 20.3051 123.3 20.3051L123.3 17.9145L123.3 17.9145ZM110.108 25.8846L94.9761 25.8846L94.9761 26.7813L91.4996 26.7813L91.4996 4.66243L113.586 4.66243L113.586 26.6828L110.108 26.6828L110.108 25.8846L110.108 25.8846ZM110.108 7.5517L94.9761 7.5517L94.9761 23.1944L110.108 23.1944L110.108 7.55169L110.108 7.5517ZM100.6 16.121L96.2021 16.121L96.2021 13.3302L100.6 13.3302L100.6 11.7358L95.7927 11.7358L95.7927 8.94709L109.085 8.94709L109.085 11.7358L103.871 11.7358L103.871 13.3302L108.779 13.3302L108.779 16.121L106.938 16.121C107.62 16.7181 108.302 17.3509 108.985 18.013L107.654 19.1087L109.392 19.1087L109.392 21.8995L95.5891 21.8995L95.5891 19.1087L100.6 19.1087L100.6 16.121L100.6 16.121ZM103.871 19.1087L106.224 19.1087C105.868 18.757 105.527 18.3918 105.2 18.013L104.484 17.3153L105.915 16.121L103.871 16.121L103.871 19.1087L103.871 19.1087ZM83.6252 19.5089L78.2049 19.5089L78.2049 26.9804L74.5248 26.9804L74.5248 19.5089L69.0037 19.5089L69.0037 21.2018L65.4244 21.2018L65.4244 7.85131L74.5248 7.85131L74.5248 3.66512L78.2049 3.66512L78.2049 7.85131L87.3074 7.85131L87.3074 21.2018L83.6252 21.2018L83.6252 19.5089L83.6252 19.5089ZM74.5248 11.1387L69.0037 11.1387L69.0037 16.2195L74.5248 16.2195L74.5248 11.1387ZM83.6252 11.1387L78.2049 11.1387L78.2049 16.2195L83.6252 16.2195L83.6252 11.1387ZM172.37 43.371L172.37 36.3689C172.37 35.799 172.429 34.9442 172.547 33.8065L172.488 33.8065C172.324 34.5133 172.09 35.1963 171.787 35.8556L168.808 43.371L167.406 43.371L164.366 35.8556C164.12 35.1826 163.905 34.4995 163.724 33.8065L163.665 33.8065C163.742 34.6802 163.782 35.5329 163.782 36.3689L163.782 43.371L161.971 43.371L161.971 31.5856L164.366 31.5856L167.639 39.5557C167.676 39.7463 167.794 40.069 167.989 40.5236C168.011 40.6621 168.05 40.7955 168.107 40.9238C168.3 40.3916 168.476 39.937 168.632 39.5557L171.846 31.5856L174.241 31.5856L174.241 43.371L172.37 43.371L172.37 43.371ZM155.045 43.5428C151.226 43.3521 149.241 41.3408 149.085 37.5066C149.28 33.5991 151.306 31.5479 155.163 31.3572C158.864 31.5856 160.85 33.6158 161.122 37.45C161.005 41.3973 158.979 43.4276 155.045 43.5428ZM159.019 37.5066C158.824 34.7745 157.518 33.2932 155.104 33.0669C152.61 33.2554 151.285 34.7367 151.13 37.5066C151.247 40.2785 152.532 41.7577 154.986 41.9484C157.596 41.8331 158.939 40.3539 159.019 37.5066L159.019 37.5066ZM143.27 41.8918C145.101 41.9295 146.23 40.9992 146.661 39.101L148.821 39.6143C148.12 42.271 146.289 43.5784 143.329 43.5428C139.628 43.4653 137.739 41.456 137.661 37.5066C137.739 33.5215 139.687 31.4724 143.505 31.3572C145.919 31.397 147.614 32.5536 148.588 34.831L146.484 35.4009C145.938 33.9573 144.908 33.1989 143.388 33.1234C141.089 33.2366 139.882 34.699 139.764 37.5066C139.804 40.3539 140.971 41.8143 143.27 41.8918ZM134.535 31.5856L136.521 31.5856L136.521 43.371L134.535 43.371L134.535 31.5856ZM125.739 35.9687C125.311 35.2501 124.941 34.5649 124.628 33.9196L124.572 33.9196C124.687 34.6026 124.746 35.3821 124.746 36.2537L124.746 43.371L122.819 43.371L122.819 31.5856L124.864 31.5856C126.565 34.0156 128.24 36.4642 129.887 38.9313C130.315 39.5389 130.706 40.2408 131.057 41.037L131.057 40.9804C130.982 40.2798 130.942 39.5772 130.939 38.8726L130.939 31.5856L132.868 31.5856L132.868 43.371L130.882 43.371C129.155 40.9123 127.441 38.4448 125.739 35.9687L125.739 35.9687ZM116.303 43.5428C112.952 43.6559 111.315 41.9484 111.395 38.418L111.395 31.5856L113.381 31.5856L113.381 38.418C113.341 40.8086 114.315 41.9672 116.303 41.8918C118.444 41.9672 119.477 40.8086 119.399 38.418L119.399 31.5856L121.385 31.5856L121.385 38.418C121.503 41.9861 119.809 43.6937 116.303 43.5428L116.303 43.5428ZM99.0613 40.5236L93.6262 40.5236L92.4002 43.371L90.2968 43.371L95.3791 31.529L97.3084 31.529L102.391 43.371L100.228 43.371L99.0613 40.5236L99.0613 40.5236ZM96.7227 34.6592C96.5275 34.1669 96.4309 33.7876 96.4309 33.5215L96.3721 33.5215C96.3173 33.9198 96.2004 34.299 96.0215 34.6592L94.3274 38.8161L98.3601 38.8161L96.7227 34.6592ZM82.9619 35.9687C82.5336 35.2501 82.162 34.5649 81.8513 33.9196L81.7925 33.9196C81.9101 34.6026 81.9689 35.3821 81.9689 36.2537L81.9689 43.371L80.0396 43.371L80.0396 31.5856L82.0844 31.5856C83.7873 34.0153 85.4625 36.4638 87.11 38.9313C87.5383 39.5389 87.9288 40.2408 88.2794 41.037L88.2794 40.9804C88.2034 40.2799 88.1642 39.5773 88.1618 38.8726L88.1618 31.5856L90.091 31.5856L90.091 43.371L88.103 43.371C86.3771 40.9119 84.6634 38.4445 82.9618 35.9687L82.9619 35.9687ZM76.4457 31.5856L78.4316 31.5856L78.4316 43.371L76.4457 43.371L76.4457 31.5856ZM72.7929 38.133L66.8918 38.133L66.8918 43.371L64.9038 43.371L64.9038 31.5856L66.8918 31.5856L66.8918 36.4255L72.7929 36.4255L72.7929 31.5856L74.8376 31.5856L74.8376 43.371L72.7929 43.371L72.7929 38.133L72.7929 38.133ZM58.5639 41.8918C60.3945 41.9295 61.5239 40.9992 61.9522 39.101L64.1144 39.6143C63.4133 42.271 61.5827 43.5784 58.6227 43.5428C54.9217 43.4653 53.0323 41.456 52.9546 37.5066C53.0323 33.5215 54.9784 31.4724 58.797 31.3572C61.2132 31.397 62.9074 32.5536 63.8814 34.831L61.7779 35.4009C61.2321 33.9573 60.1993 33.1989 58.6815 33.1234C56.3807 33.2366 55.1757 34.699 55.0581 37.5066C55.0959 40.3539 56.2652 41.8143 58.5639 41.8918ZM47.5385 28.6272C42.771 28.9875 39.368 24.2964 39.368 24.2964L37.1386 26.4628L34.1681 22.8549L36.3955 20.6906L34.1681 18.5263L37.1386 15.6412L39.368 17.8055C43.2055 13.1773 46.7953 13.4769 46.7953 13.4769C54.3465 13.6571 54.2226 20.6906 54.2226 20.6906C53.9749 28.7466 47.5385 28.6272 47.5385 28.6272ZM47.5385 17.8055C44.8136 17.684 43.0817 20.6906 43.0817 20.6906C45.1243 24.177 47.5385 23.5757 47.5385 23.5757C49.642 23.3955 49.7658 20.6906 49.7658 20.6906C49.7049 18.1659 47.5385 17.8055 47.5385 17.8055ZM30.3558 20.7011L39.958 30.8166C42.9116 32.6939 41.4358 36.5973 41.4358 36.5973C39.6619 39.7757 37.1386 40.9301 37.1386 40.9301C34.4074 42.8095 31.8337 40.9301 31.8337 40.9301L27.4021 37.318L22.9684 40.9301C20.6067 42.5204 19.2758 41.653 19.2758 41.653C14.6972 40.3539 13.3663 35.8723 13.3663 35.8723C12.3334 32.6939 14.8442 30.8166 14.8442 30.8166L24.4463 20.7011L14.8442 11.3105C11.4475 7.9854 13.3663 5.52984 13.3663 5.52984C14.6972 2.64058 17.0841 1.1949 17.0841 1.1949C20.8691 -0.97362 23.7074 1.1949 23.7074 1.1949L27.4021 4.807L31.8337 1.1949C34.716 -0.97362 36.2653 0.472058 36.2653 0.472058C39.3282 1.64536 40.6969 4.08416 40.6969 4.08416C43.0817 7.57055 40.8522 10.5876 40.8522 10.5876L30.3558 20.7011ZM18.4738 33.7059C18.4738 33.7059 16.996 34.8792 18.4738 36.5973C18.4738 36.5973 19.5802 38.221 21.4254 36.5973L24.3791 33.7059L22.1644 31.5395L25.1181 28.6481L27.3328 30.8166L29.5476 28.6481L32.5013 31.5395L30.2865 33.7059L33.2402 36.5973C33.2402 36.5973 34.9008 38.1309 36.9308 36.5973C36.9308 36.5973 37.9468 34.6089 35.455 32.9831L27.3328 25.036L18.4738 33.7059ZM37.1386 5.52984C35.096 3.99407 33.425 5.52984 33.425 5.52984L30.4545 8.4191L32.6818 10.5876L29.7113 13.4769L27.484 11.3105L25.2545 13.4769L22.2841 10.5876L24.5114 8.4191L21.5409 5.52984C19.683 3.90397 18.5704 5.52984 18.5704 5.52984C17.0841 7.2458 18.5704 8.4191 18.5704 8.4191L27.484 17.089L35.6544 9.14194C38.161 7.51608 37.1386 5.52984 37.1386 5.52984L37.1386 5.52984ZM17.0841 15.6433L20.0546 18.5347L17.8273 20.7011L20.0546 22.8696L17.0841 26.4817L14.8547 24.3153C14.8547 24.3153 11.4517 29.0106 6.68425 28.6481C6.68425 28.6481 0.24784 28.7697 0.000124982 20.7011C0.000124982 20.7011 -0.123733 13.6571 7.4274 13.4769C7.4274 13.4769 11.0172 13.1752 14.8547 17.8118L17.0841 15.6433ZM6.68425 17.8118C6.68425 17.8118 4.51779 18.1722 4.45691 20.7011C4.45691 20.7011 4.58077 23.4102 6.68425 23.5903C6.68425 23.5903 9.09843 24.1938 11.141 20.7011C11.141 20.7011 9.40913 17.6903 6.68425 17.8118Z" fill="rgb(2,84,164)" fill-rule="nonzero" />
</svg>
