<svg viewBox="0 0 161 40" xmlns="http://www.w3.org/2000/svg" xmlns:xlink="http://www.w3.org/1999/xlink" width="161.000000" height="40.000000" fill="none">
	<mask id="mask_3" width="40.000000" height="40.000000" x="0.500000" y="0.000000" maskUnits="userSpaceOnUse" mask-type="luminance">
		<g filter="url(#pixso_custom_mask_type_luminance)">
			<g id="mask0_2011_604">
				<path id="矢量 102" d="M40.5 0L0.5 0L0.5 40L40.5 40L40.5 0Z" fill="rgb(255,255,255)" fill-rule="nonzero" />
			</g>
		</g>
	</mask>
	<defs>
		<filter id="pixso_custom_mask_type_alpha">
			<feColorMatrix type="matrix" values="0 0 0 0 1 0 0 0 0 1 0 0 0 0 1 0 0 0 1 0 " />
		</filter>
		<filter id="pixso_custom_mask_type_luminance">
			<feColorMatrix type="matrix" values="1 0 0 0 0 0 1 0 0 0 0 0 1 0 0 0 0 0 1 0 " />
		</filter>
	</defs>
	<mask id="mask_2" width="160.000000" height="40.000000" x="0.500000" y="0.000000" maskUnits="userSpaceOnUse" mask-type="alpha">
		<g filter="url(#pixso_custom_mask_type_alpha)">
			<g id="clip0_2011_604">
				<rect id="矩形 108" width="160.000000" height="40.000000" x="0.500000" y="0.000000" fill="rgb(0,0,0)" />
			</g>
		</g>
	</mask>
	<rect id="tailgrids 1" width="161.000000" height="40.000000" x="0.000000" y="0.000000" />
	<g id="clip path group" mask="url(#mask_2)">
		<g id="mask" mask="url(#mask_3)">
			<g id="组合 157">
				<path id="矢量 98" d="M40.4359 18.3522C40.4163 18.1526 40.3239 17.9673 40.1764 17.8316C40.0288 17.6958 39.8363 17.6191 39.6358 17.6162L19.7 17.6162C19.1586 17.6294 18.6301 17.784 18.167 18.0647C17.7039 18.3454 17.3222 18.7424 17.06 19.2162C16.8172 19.6399 16.6895 20.1198 16.6895 20.6082C16.6895 21.0965 16.8172 21.5764 17.06 22.0002C17.1293 22.1334 17.2321 22.2463 17.3584 22.3277C17.4847 22.409 17.6299 22.4561 17.7799 22.4642L39.684 22.4642C39.8845 22.4612 40.0769 22.3845 40.2243 22.2488C40.372 22.113 40.4642 21.9277 40.484 21.7282C40.484 21.1042 40.484 20.5762 40.484 20.1282C40.484 19.6802 40.4838 18.9602 40.4359 18.3522Z" opacity="0.720000029" fill="rgb(55,88,249)" fill-rule="nonzero" />
				<path id="矢量 99" d="M40.4193 18.3522C40.4035 18.154 40.3145 17.9689 40.1695 17.8328C40.0246 17.6967 39.8341 17.6195 39.6353 17.6162L36.4353 17.6162C36.3231 17.6174 36.2123 17.6423 36.1103 17.6892C36.0083 17.736 35.9174 17.8038 35.8433 17.8882C35.7688 17.9693 35.7129 18.0657 35.6797 18.1708C35.6465 18.2759 35.6369 18.3869 35.6514 18.4962C35.6514 19.0082 35.6514 19.5202 35.6514 20.0962C35.6473 22.6493 35.0003 25.1603 33.7699 27.3973C32.5395 29.6344 30.7653 31.5255 28.6113 32.8962C28.3873 33.0402 28.1794 33.2162 27.9394 33.3442C26.7653 34.0128 25.5057 34.5188 24.1953 34.8482L26.2914 38.5762C26.3625 38.6994 26.4653 38.8015 26.5891 38.8718C26.7128 38.9421 26.853 38.9781 26.9953 38.9762C27.0799 38.9915 27.1667 38.9915 27.2514 38.9762L27.7633 38.7682L28.2273 38.5762C28.9351 38.2822 29.6244 37.9456 30.2914 37.5682C33.4109 35.8109 36.0029 33.2503 37.798 30.1524C39.5932 27.0546 40.526 23.5325 40.4994 19.9522C40.4994 19.3602 40.4673 18.8962 40.4193 18.3522Z" fill="rgb(55,88,249)" fill-rule="nonzero" />
				<path id="矢量 100" d="M29.0951 33.5387C28.9876 33.3562 28.8167 33.2195 28.6151 33.1547L28.391 33.1547C28.2521 33.1558 28.1153 33.1886 27.991 33.2507C25.7095 34.5489 23.1281 35.2274 20.5031 35.2187C16.4744 35.2102 12.6132 33.6061 9.76445 30.7574C6.91573 27.9086 5.31158 24.0474 5.30313 20.0187C5.31158 15.99 6.91573 12.1287 9.76445 9.27999C12.6132 6.43126 16.4744 4.82713 20.5031 4.81867C23.1269 4.81951 25.7059 5.49735 27.991 6.78666C28.1105 6.86248 28.2496 6.90144 28.391 6.89866L28.567 6.89866C28.6767 6.87445 28.7803 6.82785 28.8711 6.76177C28.962 6.6957 29.0383 6.61157 29.0951 6.51467L30.6951 3.73067C30.8009 3.54551 30.83 3.3263 30.7762 3.11997C30.7224 2.91363 30.5898 2.73657 30.407 2.62667C27.3954 0.924775 23.9944 0.0317976 20.5352 0.0346751C15.2334 0.0431376 10.1513 2.15299 6.40235 5.90189C2.65345 9.65078 0.543618 14.7329 0.535156 20.0347C0.543618 25.3364 2.65345 30.4186 6.40235 34.1675C10.1513 37.9164 15.2334 40.0262 20.5352 40.0347C23.9944 40.0375 27.3954 39.1446 30.407 37.4427C30.4986 37.3913 30.5789 37.3221 30.6432 37.2391C30.7075 37.1561 30.7544 37.0611 30.7813 36.9596C30.8081 36.8581 30.8144 36.7523 30.7996 36.6484C30.7848 36.5445 30.7493 36.4446 30.6951 36.3547L29.0951 33.5387Z" fill="rgb(55,88,249)" fill-rule="nonzero" />
				<path id="矢量 101" d="M22.7873 22.3998L17.7314 22.3998C17.588 22.3896 17.4491 22.345 17.3266 22.2698C17.204 22.1946 17.1014 22.091 17.0273 21.9678L26.3234 38.4318C26.3946 38.5551 26.4973 38.6571 26.6211 38.7275C26.7448 38.7978 26.885 38.8338 27.0273 38.8318C27.1174 38.847 27.2094 38.847 27.2994 38.8318C28.3566 38.4512 29.3791 37.9801 30.3555 37.4238C30.447 37.3724 30.5271 37.3032 30.5914 37.2202C30.6557 37.1373 30.7026 37.0422 30.7295 36.9407C30.7563 36.8393 30.7626 36.7334 30.7478 36.6295C30.733 36.5256 30.6975 36.4257 30.6433 36.3358L22.7873 22.3998Z" opacity="0.560000002" fill="rgb(55,88,249)" fill-rule="nonzero" />
			</g>
		</g>
		<path id="" d="M48.9834 13.729L45.1089 15.3477L45.1089 10.9678L50.2725 8.03076L53.4219 8.03076L53.4219 29L48.9834 29L48.9834 13.729ZM62.5379 29Q63.263 24.0488 64.9842 19.8813Q66.7127 15.7065 69.5325 11.8687L60.3186 11.8687L60.3186 8.03076L75.1136 8.03076L75.1136 10.8213Q71.8396 14.9302 70.0379 19.3394Q68.2435 23.7485 67.6429 29L62.5379 29ZM79.0367 25.1621Q81.3805 23.1479 83.1456 21.4414Q84.9181 19.7275 86.3243 17.7939Q87.7379 15.8604 87.7379 14.4175Q87.7379 12.9526 86.6539 12.125Q85.5772 11.2974 83.8414 11.2974Q82.6109 11.2974 81.1534 11.7808Q79.7032 12.2568 78.2896 13.1284L78.2896 9.64941Q79.7325 8.74854 81.5416 8.18457Q83.358 7.61328 85.0133 7.61328Q88.3678 7.61328 90.3307 9.24658Q92.3009 10.8799 92.3009 13.6997Q92.3009 15.7065 90.9459 18.0063Q89.5982 20.2988 87.8551 22.0859Q86.1192 23.873 83.7169 25.9971L82.8526 25.3965L92.4474 25.3965L92.4474 29L77.9015 29L77.9015 26.1216L79.0367 25.1621ZM119.779 5.18164L119.779 14.6592L98.4213 14.6592L98.4213 5.18164L119.779 5.18164ZM95.3012 16.2485L122.899 16.2485L122.899 19.9106L104.691 19.9106L104.237 21.8003L119.332 21.8003L118.731 32.0029L109.217 32.0029L109.217 28.1577L114.798 28.1577L114.981 25.3965L99.3515 25.3965L100.611 19.9106L95.3012 19.9106L95.3012 16.2485ZM115.853 11.3926L115.853 8.47754L102.347 8.47754L102.347 11.3926L115.853 11.3926ZM132.501 19.3101L125.301 19.3101L125.301 15.3477L132.501 15.3477L132.501 4.99854L136.58 4.99854L136.58 7.70117L148.819 7.70117L148.819 11.5684L136.58 11.5684L136.58 15.3477L152.899 15.3477L152.899 19.3101L136.58 19.3101L136.58 32.0029L132.501 32.0029L132.501 19.3101ZM144.893 21.0166L150.35 31.6733L146.087 31.6733L140.631 21.0166L144.893 21.0166Z" fill="rgb(255,255,255)" fill-rule="nonzero" />
	</g>
</svg>
