<svg viewBox="0 0 161 40" xmlns="http://www.w3.org/2000/svg" xmlns:xlink="http://www.w3.org/1999/xlink" width="161.000000" height="40.000000" fill="none">
	<defs>
		<filter id="pixso_custom_mask_type_alpha">
			<feColorMatrix type="matrix" values="0 0 0 0 1 0 0 0 0 1 0 0 0 0 1 0 0 0 1 0 " />
		</filter>
		<clipPath id="clipPath_0">
			<rect width="34.000000" height="34.000000" x="5.000000" y="3.000000" fill="rgb(255,255,255)" />
		</clipPath>
	</defs>
	<mask id="mask_2" width="160.000000" height="40.000000" x="0.500000" y="0.000000" maskUnits="userSpaceOnUse" mask-type="alpha">
		<g filter="url(#pixso_custom_mask_type_alpha)">
			<g id="mask_0">
				<g id="clip0_2011_604">
					<rect id="矩形 108" width="160.000000" height="40.000000" x="0.500000" y="0.000000" fill="rgb(0,0,0)" />
				</g>
			</g>
		</g>
	</mask>
	<rect id="tailgrids 2" width="161.000000" height="40.000000" x="0.000000" y="0.000000" />
	<rect id="tailgrids 1" width="161.000000" height="40.000000" x="0.000000" y="0.000000" />
	<g id="mask" mask="url(#mask_2)">
		<g id="clip path group">
			<path id="矢量 " d="M48.8745 14.7305L45 16.3492L45 11.9693L50.1636 9.03222L53.313 9.03222L53.313 30.0015L48.8745 30.0015L48.8745 14.7305ZM62.429 30.0015C62.9124 26.7007 63.7278 23.6611 64.8753 20.8828C66.0276 18.0996 67.5437 15.4287 69.4236 12.8702L60.2097 12.8702L60.2097 9.03222L75.0047 9.03222L75.0047 11.8228C72.822 14.562 71.1301 17.4014 69.929 20.3409C68.7327 23.2803 67.9344 26.5005 67.534 30.0015L62.429 30.0015ZM78.9278 26.1636C80.4903 24.8208 81.86 23.5805 83.0367 22.4429C84.2184 21.3003 85.2779 20.0844 86.2154 18.7954C87.1578 17.5064 87.629 16.3809 87.629 15.419C87.629 14.4424 87.2677 13.6782 86.545 13.1265C85.8272 12.5747 84.8897 12.2989 83.7325 12.2989C82.9122 12.2989 82.0162 12.46 81.0445 12.7823C80.0777 13.0996 79.1231 13.5488 78.1807 14.1299L78.1807 10.6509C79.1426 10.0503 80.2266 9.56201 81.4327 9.18603C82.6436 8.80517 83.8009 8.61474 84.9044 8.61474C87.1407 8.61474 88.9132 9.15917 90.2218 10.248C91.5353 11.3369 92.192 12.8213 92.192 14.7012C92.192 16.039 91.7403 17.4746 90.837 19.0078C89.9385 20.5361 88.9083 21.896 87.7462 23.0874C86.5889 24.2788 85.2095 25.5825 83.608 26.9986L82.7437 26.398L92.3385 26.398L92.3385 30.0015L77.7926 30.0015L77.7926 27.1231L78.9278 26.1636ZM119.67 6.1831L119.67 15.6607L98.3124 15.6607L98.3124 6.1831L119.67 6.1831ZM95.1923 17.25L122.79 17.25L122.79 20.9121L104.582 20.9121L104.128 22.8018L119.223 22.8018L118.622 33.0044L109.108 33.0044L109.108 29.1592L114.689 29.1592L114.872 26.398L99.2426 26.398L100.502 20.9121L95.1923 20.9121L95.1923 17.25ZM115.744 12.3941L115.744 9.479L102.238 9.479L102.238 12.3941L115.744 12.3941ZM132.392 20.3116L125.192 20.3116L125.192 16.3492L132.392 16.3492L132.392 6L136.471 6L136.471 8.70263L148.71 8.70263L148.71 12.5699L136.471 12.5699L136.471 16.3492L152.79 16.3492L152.79 20.3116L136.471 20.3116L136.471 33.0044L132.392 33.0044L132.392 20.3116ZM144.784 22.0181L150.241 32.6748L145.978 32.6748L140.522 22.0181L144.784 22.0181Z" fill="rgb(0,0,0)" fill-rule="nonzero" />
		</g>
	</g>
	<g id="中国电信 1" clip-path="url(#clipPath_0)" customFrame="url(#clipPath_0)">
		<rect id="中国电信 1" width="34.000000" height="34.000000" x="5.000000" y="3.000000" />
		<path id="矢量 103" d="M5.67969 20.0002C5.67969 20.2673 5.68624 20.5342 5.69935 20.801C5.71245 21.0677 5.73209 21.334 5.75827 21.5998C5.78445 21.8656 5.81714 22.1306 5.85633 22.3948C5.89552 22.659 5.94117 22.9221 5.99327 23.184C6.04538 23.446 6.10388 23.7065 6.16878 23.9656C6.23368 24.2247 6.30489 24.482 6.38242 24.7376C6.45995 24.9932 6.54371 25.2467 6.63369 25.4982C6.72367 25.7497 6.81976 25.9988 6.92197 26.2456C7.02418 26.4923 7.13239 26.7364 7.24658 26.9779C7.36078 27.2193 7.48083 27.4578 7.60673 27.6934C7.73264 27.9289 7.86425 28.1612 8.00156 28.3903C8.13887 28.6194 8.28172 28.845 8.4301 29.0671C8.57849 29.2892 8.73224 29.5075 8.89134 29.722C9.05045 29.9365 9.21472 30.147 9.38416 30.3535C9.5536 30.5599 9.728 30.7621 9.90736 30.96C10.0867 31.1579 10.2708 31.3513 10.4597 31.5402C10.6486 31.729 10.8419 31.9131 11.0398 32.0925C11.2377 32.2719 11.4399 32.4463 11.6464 32.6157C11.8528 32.7851 12.0633 32.9494 12.2779 33.1085C12.4924 33.2676 12.7107 33.4214 12.9328 33.5698C13.1549 33.7181 13.3804 33.861 13.6095 33.9983C13.8386 34.1356 14.0709 34.2672 14.3065 34.3931C14.542 34.519 14.7805 34.6391 15.022 34.7533C15.2634 34.8675 15.5075 34.9757 15.7543 35.0779C16.001 35.1801 16.2502 35.2762 16.5016 35.3662C16.7531 35.4562 17.0067 35.5399 17.2622 35.6174C17.5178 35.695 17.7752 35.7662 18.0342 35.8311C18.2933 35.896 18.5539 35.9545 18.8158 36.0066C19.0778 36.0587 19.3408 36.1043 19.605 36.1435C19.8692 36.1827 20.1342 36.2154 20.4 36.2416C20.6658 36.2678 20.9321 36.2874 21.1989 36.3005C21.4657 36.3136 21.7326 36.3202 21.9997 36.3202C22.2668 36.3202 22.5337 36.3136 22.8005 36.3005C23.0672 36.2874 23.3335 36.2678 23.5993 36.2416C23.8651 36.2154 24.1301 36.1827 24.3943 36.1435C24.6585 36.1043 24.9216 36.0587 25.1836 36.0066C25.4455 35.9545 25.706 35.896 25.9651 35.8311C26.2242 35.7662 26.4815 35.695 26.7371 35.6174C26.9927 35.5399 27.2463 35.4562 27.4977 35.3662C27.7492 35.2762 27.9983 35.1801 28.2451 35.0779C28.4918 34.9757 28.7359 34.8675 28.9774 34.7533C29.2188 34.6391 29.4573 34.519 29.6929 34.3931C29.9284 34.2672 30.1608 34.1356 30.3898 33.9983C30.6189 33.861 30.8445 33.7181 31.0666 33.5698C31.2887 33.4214 31.507 33.2676 31.7215 33.1085C31.936 32.9494 32.1465 32.7851 32.353 32.6157C32.5594 32.4463 32.7616 32.2719 32.9595 32.0925C33.1574 31.9131 33.3508 31.729 33.5397 31.5402C33.7285 31.3513 33.9126 31.1579 34.092 30.96C34.2714 30.7621 34.4458 30.5599 34.6152 30.3535C34.7847 30.147 34.9489 29.9365 35.108 29.722C35.2671 29.5075 35.4209 29.2892 35.5693 29.0671C35.7177 28.845 35.8605 28.6194 35.9978 28.3903C36.1351 28.1612 36.2667 27.9289 36.3926 27.6934C36.5185 27.4578 36.6386 27.2193 36.7528 26.9779C36.867 26.7364 36.9752 26.4923 37.0774 26.2456C37.1796 25.9988 37.2757 25.7497 37.3657 25.4982C37.4557 25.2467 37.5394 24.9932 37.617 24.7376C37.6945 24.482 37.7657 24.2247 37.8306 23.9656C37.8955 23.7065 37.954 23.446 38.0061 23.184C38.0582 22.9221 38.1039 22.659 38.143 22.3948C38.1822 22.1306 38.2149 21.8656 38.2411 21.5998C38.2673 21.334 38.2869 21.0677 38.3 20.801C38.3131 20.5342 38.3197 20.2673 38.3197 20.0002C38.3197 19.7331 38.3131 19.4662 38.3 19.1994C38.2869 18.9326 38.2673 18.6663 38.2411 18.4005C38.2149 18.1347 38.1822 17.8697 38.143 17.6055C38.1039 17.3413 38.0582 17.0783 38.0061 16.8163C37.954 16.5543 37.8955 16.2938 37.8306 16.0347C37.7657 15.7757 37.6945 15.5183 37.617 15.2627C37.5394 15.0071 37.4557 14.7536 37.3657 14.5021C37.2757 14.2507 37.1796 14.0015 37.0774 13.7548C36.9752 13.508 36.867 13.2639 36.7528 13.0225C36.6386 12.781 36.5185 12.5425 36.3926 12.307C36.2667 12.0714 36.1351 11.8391 35.9978 11.61C35.8605 11.3809 35.7177 11.1553 35.5693 10.9333C35.4209 10.7112 35.2671 10.4929 35.108 10.2784C34.9489 10.0638 34.7847 9.85334 34.6152 9.64688C34.4458 9.44041 34.2714 9.23823 34.092 9.04033C33.9126 8.84243 33.7285 8.64905 33.5397 8.46019C33.3508 8.27133 33.1574 8.08722 32.9595 7.90785C32.7616 7.72849 32.5594 7.55408 32.353 7.38465C32.1465 7.21521 31.936 7.05093 31.7215 6.89183C31.507 6.73272 31.2887 6.57898 31.0666 6.43059C30.8445 6.2822 30.6189 6.13936 30.3898 6.00204C30.1608 5.86473 29.9284 5.73313 29.6929 5.60722C29.4573 5.48132 29.2188 5.36127 28.9774 5.24707C28.7359 5.13287 28.4918 5.02467 28.2451 4.92246C27.9983 4.82025 27.7492 4.72416 27.4977 4.63418C27.2462 4.5442 26.9927 4.46044 26.7371 4.38291C26.4815 4.30538 26.2242 4.23416 25.9651 4.16927C25.706 4.10437 25.4455 4.04587 25.1836 3.99376C24.9216 3.94165 24.6585 3.89601 24.3943 3.85682C24.1301 3.81763 23.8651 3.78494 23.5993 3.75876C23.3335 3.73258 23.0672 3.71294 22.8005 3.69983C22.5337 3.68673 22.2668 3.68018 21.9997 3.68018C21.7326 3.68018 21.4657 3.68673 21.1989 3.69983C20.9321 3.71294 20.6658 3.73258 20.4 3.75876C20.1342 3.78494 19.8692 3.81763 19.605 3.85682C19.3408 3.89601 19.0778 3.94165 18.8158 3.99376C18.5539 4.04587 18.2933 4.10437 18.0342 4.16927C17.7752 4.23416 17.5178 4.30538 17.2622 4.38291C17.0067 4.46044 16.7531 4.5442 16.5016 4.63418C16.2502 4.72416 16.001 4.82025 15.7543 4.92246C15.5075 5.02467 15.2634 5.13287 15.022 5.24707C14.7805 5.36127 14.542 5.48132 14.3065 5.60722C14.0709 5.73313 13.8386 5.86473 13.6095 6.00204C13.3804 6.13936 13.1549 6.2822 12.9328 6.43059C12.7107 6.57898 12.4924 6.73272 12.2779 6.89183C12.0633 7.05093 11.8529 7.21521 11.6464 7.38465C11.4399 7.55408 11.2377 7.72849 11.0398 7.90785C10.8419 8.08722 10.6486 8.27133 10.4597 8.46019C10.2708 8.64905 10.0867 8.84243 9.90737 9.04033C9.728 9.23823 9.5536 9.44041 9.38416 9.64688C9.21472 9.85334 9.05045 10.0638 8.89134 10.2784C8.73224 10.4929 8.57849 10.7112 8.4301 10.9333C8.28172 11.1553 8.13887 11.3809 8.00156 11.61C7.86425 11.8391 7.73264 12.0714 7.60673 12.307C7.48083 12.5425 7.36078 12.781 7.24658 13.0225C7.13239 13.2639 7.02418 13.508 6.92197 13.7548C6.81976 14.0015 6.72367 14.2507 6.63369 14.5021C6.54371 14.7536 6.45995 15.0071 6.38242 15.2627C6.30489 15.5183 6.23368 15.7757 6.16878 16.0347C6.10388 16.2938 6.04538 16.5543 5.99327 16.8163C5.94117 17.0783 5.89552 17.3413 5.85633 17.6055C5.81714 17.8697 5.78445 18.1347 5.75827 18.4005C5.73209 18.6663 5.71245 18.9326 5.69935 19.1994C5.68624 19.4662 5.67969 19.7331 5.67969 20.0002L5.67969 20.0002Z" fill="rgb(0,91,171)" fill-rule="nonzero" />
		<path id="矢量 104" d="M26.7596 8.9502L27.0996 10.2082C28.3576 10.4802 29.1736 11.0582 29.3776 11.8402C29.8536 13.7102 26.7256 15.9542 22.4756 17.0422C22.2036 17.0762 21.9316 17.1782 21.6256 17.2122C21.9656 14.2202 22.8156 12.1802 24.0396 12.1802C24.4136 12.1802 24.6856 12.3502 24.9576 12.6562L25.9436 12.3842C25.0256 10.3442 23.6656 9.0862 22.2376 9.0862C19.9256 9.0862 17.8176 12.6562 17.2736 17.4842C15.4716 17.3142 14.1796 16.7022 13.8736 15.6822C13.4996 14.2202 15.3356 12.5542 18.1576 11.3642C18.0556 11.0922 17.9876 10.6842 17.9196 10.4462C13.0916 12.2482 10.0316 15.3082 10.6776 17.9602C11.1876 19.9662 13.7376 21.1562 17.1376 21.3602C17.4096 26.6982 19.5856 31.0842 22.2716 31.0842C24.5836 31.0842 26.6916 27.7522 27.2696 22.7202L25.6036 23.1282C25.2296 25.7122 24.5156 27.4802 23.6656 27.4802C22.6116 27.4462 21.6596 24.5902 21.5236 21.0202C22.1356 20.9182 22.7816 20.7822 23.4276 20.6462C29.6496 19.0142 34.1036 15.3082 33.3216 12.2142C32.8456 10.2422 30.2616 9.0862 26.7596 8.9502L26.7596 8.9502Z" fill="rgb(255,255,255)" fill-rule="nonzero" />
	</g>
</svg>
