<svg viewBox="0 0 204 61" xmlns="http://www.w3.org/2000/svg" xmlns:xlink="http://www.w3.org/1999/xlink" width="204.000000" height="61.000000" fill="none" customFrame="#000000">
	<g id="组合 151">
		<path id="矢量 84" d="M77.9261 23.1781C75.8006 20.9763 72.7921 19.843 69.7509 20.1344C67.2002 20.2963 64.8458 21.3648 63.0472 23.1781L60.4639 25.7362L56.6706 21.8505L56.409 22.0124L53.0081 25.4448L51.7654 26.6104L53.0081 27.938L55.5587 30.5608L52.9754 33.1189L51.7327 34.3493L52.9754 35.5798L56.3763 39.0445L56.6379 39.2064L60.4639 35.3531L63.0145 37.9112C64.7804 39.6921 67.1675 40.793 69.7182 40.9549C72.7921 41.2463 75.8006 40.113 77.9261 37.9112C79.9863 35.936 81 33.216 81 30.5932C80.9673 27.8733 79.9863 25.1533 77.9261 23.1781L77.9261 23.1781ZM73.021 33.0541C72.1708 33.9284 70.8954 34.2846 69.7182 34.0255C69.0642 33.9284 68.4756 33.6046 67.8869 33.0217C66.7424 31.8884 65.3363 30.5608 65.3363 30.5608C65.3363 30.5608 66.7424 29.0713 67.8869 28.0028C68.4756 27.42 69.0642 27.0961 69.7182 27.0314C70.8627 26.7076 72.1381 27.0314 73.021 28.0352C73.7731 28.6828 74.1001 29.5894 74.1001 30.5932C74.1328 31.5322 73.7077 32.4065 73.021 33.0541ZM11.2491 40.8577C13.7344 40.6958 16.1542 39.7244 17.9528 37.814C19.13 36.6807 20.5361 35.256 20.5361 35.256L24.4275 39.1416L24.6564 38.9149L28.0573 35.5474L29.3 34.3169L28.0573 33.1512L25.4086 30.5284L28.0573 27.8085L29.3 26.578L28.0573 25.4124L24.6564 22.0448L24.4275 21.7858L20.5361 25.639C20.5361 25.639 19.13 24.2467 17.9855 23.081C16.1542 21.1705 13.7671 20.1991 11.2818 20.0372C8.24061 19.7782 5.19943 20.8791 3.07388 23.081C1.01373 25.0562 0 27.7761 0 30.496C0 33.1189 0.981025 35.8388 3.07388 37.814C5.16673 39.9835 8.17521 41.1168 11.2491 40.8577L11.2491 40.8577ZM7.9463 27.9056C8.86193 26.999 10.1046 26.5781 11.2491 26.9342C11.9031 27.0314 12.5898 27.3552 13.0803 27.9056C14.2249 28.9742 15.631 30.4637 15.631 30.4637C15.631 30.4637 14.2249 31.7913 13.0476 32.9246C12.5898 33.475 11.9358 33.8312 11.2164 33.896C10.0065 34.155 8.76383 33.7665 7.9136 32.8922C7.25959 32.2446 6.86718 31.338 6.83448 30.4313C6.86718 29.4923 7.29229 28.5856 7.9463 27.9056L7.9463 27.9056Z" fill="rgb(215,0,15)" fill-rule="nonzero" />
		<path id="矢量 85" d="M57.8609 43.0351L56.2974 41.4753C55.1574 40.3378 54.0174 39.1679 52.9099 37.998C49.3596 34.5207 45.4184 30.556 45.4184 30.556C45.4184 30.556 49.3921 26.5263 52.9425 23.0491C54.0499 21.8792 55.19 20.7093 56.33 19.5718L57.8934 18.0119C62.0301 13.8848 62.0301 7.19024 57.926 3.16053C57.4374 2.67306 56.9488 2.1531 56.3626 1.82812C55.3528 1.11318 54.2128 0.593213 52.9751 0.333232C49.4899 -0.511708 45.8092 0.398226 43.1383 3.12803C41.4772 4.68791 40.5651 5.69534 40.5651 5.69534L38.0245 3.12803C35.4513 0.49572 31.7056 -0.576702 28.1226 0.300732C26.9175 0.560714 25.7449 1.08068 24.7352 1.79562C24.1814 2.18559 23.6603 2.64056 23.1717 3.12803C19.0351 7.15773 19.0351 13.8523 23.1391 17.9795L24.7026 19.5393L28.0901 22.9191L35.6468 30.5235C35.6468 30.5235 31.6079 34.4883 28.0575 38.0305C26.9175 39.1679 25.7775 40.2728 24.67 41.4103L23.1066 42.9701C18.9699 47.0973 18.9699 53.7919 23.074 57.8541C23.5626 58.3415 24.0512 58.764 24.6374 59.1865C25.7123 59.9339 26.8523 60.4214 28.0249 60.6814C31.5753 61.5588 35.3536 60.4864 37.9268 57.8866L40.5 55.3192C40.5 55.3192 41.412 56.3267 43.0406 57.8866C45.6789 60.6164 49.3922 61.5263 52.8448 60.7138C54.0499 60.4539 55.19 59.9339 56.2323 59.219C56.8186 58.894 57.3071 58.4065 57.7957 57.8866C61.9649 53.8894 61.9649 47.1948 57.8609 43.0351L57.8609 43.0351ZM28.1226 13.2023L28.0249 13.1048C26.6243 11.6099 26.6243 9.40008 28.0249 8.00268C28.0249 7.90519 28.1226 7.90519 28.1226 7.84019C29.621 6.60528 31.8358 6.60528 33.1387 8.00268L35.6793 10.57L31.8358 14.3397L36.6891 19.2144L40.5651 15.4121L44.4412 19.2144L49.327 14.3397L45.4509 10.5375C45.4509 10.5375 46.6235 9.30259 48.0241 7.97018C49.3596 6.57278 51.5745 6.57278 52.9751 7.80769L53.1379 7.97018C54.5385 9.36758 54.5385 11.6099 53.1379 13.0723C53.0402 13.0723 52.9751 13.1698 52.9751 13.2348C50.9882 15.2172 40.5 25.5839 40.5 25.5839C40.5 25.5839 30.1095 15.1847 28.1226 13.2023L28.1226 13.2023ZM53.0402 53.0444C52.9425 53.1419 52.8773 53.1419 52.8773 53.2069C51.4768 54.4418 49.2293 54.4418 47.9264 53.0444C46.5258 51.712 45.3858 50.4771 45.3858 50.4771L49.2619 46.6099L44.4086 41.7352L40.5326 45.6024L36.6565 41.7027L31.7707 46.5774L35.6468 50.4446C35.6468 50.4446 34.409 51.6795 33.1062 53.0119C31.7707 54.4093 29.5558 54.4093 28.0575 53.1744C28.0575 53.1094 27.9598 53.1094 27.9598 53.0119C26.5592 51.582 26.5592 49.3072 27.9598 47.8773L28.0575 47.8123L40.4349 35.3657L52.8773 47.7798C52.8773 47.8773 52.9751 47.9423 53.0402 47.9423C54.4734 49.3072 54.4734 51.647 53.0402 53.0444L53.0402 53.0444Z" fill="rgb(215,0,15)" fill-rule="nonzero" />
		<path id="矢量 86" d="M136.569 44.7918C135.727 43.9458 134.787 43.4252 133.782 43.3601C133.556 43.295 133.426 43.295 133.296 43.295C131.87 43.295 130.671 43.7831 129.731 44.7918C128.792 45.8004 128.306 47.0694 128.306 48.5987C128.306 50.0955 128.792 51.397 129.731 52.4057C130.736 53.4143 131.87 53.9024 133.361 53.9024L133.782 53.9024C134.787 53.7723 135.694 53.3493 136.569 52.5358L136.569 53.6096L139 53.6096L139 43.5553L136.569 43.5553L136.569 44.7918L136.569 44.7918ZM135.856 50.8764C135.37 51.5271 134.657 51.82 133.782 51.82L133.718 51.82C132.875 51.82 132.162 51.5271 131.579 50.8764C131.093 50.2907 130.801 49.5098 130.801 48.5987C130.801 47.6551 131.093 46.9393 131.644 46.321C132.13 45.7354 132.843 45.4751 133.718 45.4751L133.782 45.4751C134.625 45.4751 135.338 45.7679 135.856 46.3536C136.44 46.9393 136.699 47.7202 136.699 48.6312C136.731 49.5423 136.44 50.3232 135.856 50.8764ZM108.407 43.3926C106.495 43.3926 105.556 44.6616 105.556 44.6616L105.556 39L102.995 39L102.963 53.6096L105.523 53.6096L105.523 47.4273C105.523 46.1258 106.236 45.0521 107.662 45.0521C109.153 45.0521 109.574 46.4187 109.574 47.4273L109.574 53.6096L111.843 53.6096L111.843 47.6551C111.907 44.6291 110.255 43.3926 108.407 43.3926ZM96.5139 42.7419C97.5833 42.7093 98.588 43.1649 99.3009 43.9783C99.5278 44.3362 99.787 44.6291 99.8843 45.0521L102.088 43.4902C101.537 42.7093 100.792 42.0586 99.9491 41.5705C98.8796 40.9848 97.7454 40.6269 96.6111 40.6269C94.8935 40.6269 93.4676 41.18 92.2037 42.3514C90.713 43.718 90 45.3449 90 47.2972C90 49.1518 90.6481 50.7462 91.912 52.0477C93.1759 53.3492 94.7639 54 96.6111 54C97.8102 54 98.9444 53.7072 99.9491 53.154C100.889 52.6659 101.505 52.0152 102.088 51.2343C101.343 50.7137 100.597 50.1931 99.8843 49.6399C99.8194 49.9978 99.5278 50.3557 99.3009 50.6486C98.5231 51.5922 97.5833 51.9176 96.5139 51.9176C95.3796 51.9176 94.5046 51.5597 93.8241 50.6811C93.0463 49.8026 92.6898 48.6638 92.6898 47.2972C92.6898 45.9956 93.0463 44.9219 93.8241 44.0759C94.4722 43.1974 95.4769 42.7093 96.5139 42.7419L96.5139 42.7419ZM120.722 47.4924C120.722 46.1909 121.5 45.1171 122.926 45.1171C124.417 45.1171 124.838 46.4837 124.838 47.4924L124.838 53.6421L127.204 53.6421L127.204 47.6876C127.204 44.5965 125.519 43.3926 123.736 43.3926C121.306 43.3275 120.528 44.6616 120.528 44.6616L120.398 43.5228L118.259 43.5228L118.227 53.6421L120.722 53.6421L120.722 47.4924L120.722 47.4924Z" fill="rgb(34,24,20)" fill-rule="nonzero" />
		<path id="矢量 87" d="M114.165 42.7617L115.858 42.7617L115.858 53L114.165 53L114.165 42.7617ZM115.035 39C114.423 39 114 39.5561 114 40.3738C114 41.1262 114.423 41.7477 114.964 41.7477L115.011 41.7477C115.623 41.7477 115.999 41.0935 115.999 40.3738C116.022 39.5888 115.67 39 115.035 39L115.035 39Z" fill="rgb(215,0,15)" fill-rule="nonzero" />
		<path id="矢量 88" d="M200.7 43.0342C199.167 42.9703 198.133 43.6091 197.267 44.5674C196.6 43.5133 195.6 43.0023 194.567 43.0023C192.367 42.9384 191.4 44.248 191.4 44.248L191.333 43.0661L189 43.0661L189 53L191.633 53L191.633 47.0269C191.633 45.6854 192.3 44.6952 193.7 44.6952C195.1 44.6952 195.467 45.9728 195.467 47.0269L195.467 53L197.867 53L197.867 47.0908L197.867 47.1547C197.867 45.4618 198.667 44.6952 199.833 44.6952C201.233 44.6952 201.667 45.9728 201.667 47.0269L201.667 53L204 53L204 47.1547C204 44.216 202.467 43.0342 200.7 43.0342L200.7 43.0342Z" fill="rgb(34,24,20)" fill-rule="nonzero" />
		<path id="矢量 89" d="M164.535 39C163.628 39 163 39.6542 163 40.4393C163 41.1589 163.593 41.7477 164.465 41.7477L164.535 41.7477C165.442 41.7477 166 41.1589 166 40.4393C165.965 39.6542 165.442 39.0327 164.535 39L164.535 39ZM163.209 42.8271L165.721 42.8271L165.721 53L163.209 53L163.209 42.8271L163.209 42.8271Z" fill="rgb(215,0,15)" fill-rule="nonzero" />
		<path id="矢量 90" d="M187.309 45.6994C186.882 44.8896 186.161 44.2147 185.374 43.7761C184.619 43.2699 183.734 43 182.848 43.0337L182.619 43.0337C181.34 43.0337 180.094 43.5399 179.175 44.4509C178.027 45.4969 177.437 46.8129 177.437 48.4663C177.437 50.0184 177.929 51.2669 178.946 52.3466C179.962 53.4601 181.176 53.9663 182.684 54C182.75 54 182.75 54 182.816 53.9325C184.652 53.9663 186.39 52.9202 187.276 51.2669C187.702 50.4571 187.998 49.4785 187.998 48.5C188.03 47.4877 187.735 46.6104 187.309 45.6994ZM184.849 51.1319C184.357 51.8067 183.636 52.1104 182.848 52.1779C181.996 52.1779 181.34 51.8067 180.848 51.1319C180.258 50.4571 180.061 49.5798 180.061 48.4663C180.061 47.4202 180.29 46.5429 180.848 45.8681C181.438 45.1933 182.061 44.8221 182.848 44.8221C183.701 44.8221 184.357 45.1933 184.947 45.8681C185.439 46.5429 185.735 47.4202 185.735 48.4663C185.735 49.5798 185.439 50.4571 184.849 51.1319L184.849 51.1319ZM157.923 43.0675C155.562 43 154.742 44.3834 154.742 44.3834L154.611 43.2024L152.446 43.2024L152.446 53.6963L154.971 53.6963L154.971 47.3865C154.971 45.9693 155.693 44.8558 157.136 44.8558C158.645 44.8558 159.071 46.273 159.071 47.3865L159.071 53.6963L161.432 53.6963L161.432 47.5215C161.465 44.3159 159.825 43.0675 157.923 43.0675ZM147.854 49.5123C147.854 50.9295 147.133 51.9755 145.624 51.9755C144.116 51.9755 143.525 50.6258 143.525 49.5123L143.525 43.2025L141 43.2025L141 49.3098C141 52.5828 143.001 53.7638 144.804 53.865C147.264 53.865 148.051 52.4479 148.051 52.4479L148.182 53.7301L150.347 53.7301L150.347 43.2362L147.822 43.2362L147.854 49.5123L147.854 49.5123ZM172.845 44.9908C173.698 44.9908 174.354 45.2945 174.879 45.9693C175.076 46.2055 175.24 46.408 175.371 46.7117L177.24 45.2945C176.814 44.6196 176.224 44.0798 175.502 43.7423C174.715 43.2362 173.764 43 172.845 43C171.468 43 170.32 43.4387 169.238 44.4172C168.09 45.5307 167.5 46.8804 167.5 48.5C167.5 49.9847 167.992 51.2331 169.074 52.3466C170.091 53.3926 171.37 53.9325 172.813 53.9325C173.764 53.9325 174.682 53.7301 175.535 53.1902C176.191 52.819 176.748 52.3129 177.207 51.638L175.338 50.2209C175.207 50.5245 175.043 50.8282 174.846 51.0307C174.354 51.7055 173.633 52.0092 172.845 52.0092C172.091 52.0429 171.37 51.6718 170.91 51.0307C170.353 50.3558 170.058 49.546 170.058 48.5C170.058 47.454 170.353 46.6442 170.91 45.9693C171.402 45.2945 172.058 44.9908 172.845 44.9908L172.845 44.9908Z" fill="rgb(34,24,20)" fill-rule="nonzero" />
		<path id="矢量 91" d="M178.261 9.47139L181.454 13.8856L184.093 11.9891C182.203 9.50409 180.15 8 180.15 8L178.261 9.47139L178.261 9.47139ZM194.486 29.515L185.135 29.515C184.256 29.515 183.539 28.7956 183.539 27.8801L183.539 15.0627L178 15.0627L178 17.5804L179.89 17.5804L179.89 28.9264C179.89 30.5613 181.16 31.9346 182.822 32L204 32L204 29.515L194.486 29.515Z" fill="rgb(34,24,20)" fill-rule="nonzero" />
		<path id="矢量 92" d="M202.258 10.907L202.258 8L184.924 8L184.924 10.4548L197.49 10.4548L193.881 12.6512L193.43 12.9419C192.141 12.199 190.82 11.4884 190.24 11.1977C190.079 11.1977 189.95 11.0362 189.95 11.0362L188.791 12.7804L189.95 13.9431L185.021 13.9108L184.989 28.6072L186.02 28.6072C187.18 28.6072 188.339 27.8643 188.339 26.4431L188.339 24.4083L192.238 24.4083L192.238 28.6395L193.849 28.6395C194.848 28.3488 195.428 27.7674 195.589 26.4754L195.589 24.4406L199.455 24.4406L199.455 25.4419C199.455 25.8618 198.875 26.1847 198.456 26.1847L196.878 26.1847L197.457 28.3811L197.619 28.6718L199.938 28.6718C201.678 28.6718 202.967 27.3798 202.967 25.7649L202.999 16.0103C203.031 14.9121 202.161 14.0078 201.066 13.9755L197.071 13.9755L197.49 13.6848L202.258 10.907L202.258 10.907ZM192.27 22.0827L188.372 22.0827L188.372 20.3385L192.27 20.3385L192.27 22.0827ZM192.27 18.0129L188.339 18.0129L188.339 16.3979L192.27 16.3979L192.27 18.0129ZM199.487 22.115L195.589 22.115L195.589 20.3708L199.487 20.3708L199.487 22.115ZM197.49 16.4302L199.519 16.4302L199.519 18.0452L195.621 18.0452L195.621 16.4302L197.49 16.4302L197.49 16.4302ZM161.888 26.54L161.888 23.7946L161.469 23.9238L160.309 24.2145L160.341 10.5517C160.341 8.96898 159.342 8.06459 158.182 8.06459L149.483 8.06459L149.483 10.5517L155.251 10.584L156.7 10.584L156.7 14.363L153.801 14.363L153.801 11.7468L150.482 11.7468L150.45 27.0245L149 27.4444L149 30.1899L155.218 28.478L156.668 28.0581L156.668 33L158.118 33C159.117 33 159.987 32.4186 160.277 31.0943L160.277 27.0245L161.437 26.7339L161.888 26.5401L161.888 26.54ZM156.7 25.2158L155.251 25.6357L153.801 26.0556L153.801 22.115L156.7 22.115L156.7 25.2158L156.7 25.2158ZM156.7 19.6925L153.801 19.6925L153.801 16.7855L156.7 16.7855L156.7 19.6925Z" fill="rgb(34,24,20)" fill-rule="nonzero" />
		<path id="矢量 93" d="M174.48 21.4664L174.48 18.962L169.667 18.962L169.667 15.2383L174.48 15.2383L174.48 12.7338L171.261 12.7338L174.187 9.04309L171.423 7.09886L167.911 12.7338L165.44 12.7338L167.489 11.0862C165.765 8.71356 164.139 7.06591 164.139 7.06591L162.221 8.25222L164.855 12.7009L161.635 12.7009L161.635 15.2383L165.733 15.2383L165.733 18.962L161.635 18.962L161.635 21.4994L165.277 21.4994L161.31 31.7478L161.018 32.8023L162.774 32.8023C163.782 32.8023 164.822 32.2091 165.245 31.3194L167.879 24.4981L171.358 32.8352L175 32.8352L170.057 21.5323L174.48 21.4664L174.48 21.4664ZM113.087 10.5589L105.055 10.5589L105.055 7L100.828 7L100.828 10.5589L95.5929 10.5589L95.5929 13.0963L100.828 13.0963L100.828 23.3447L94.2598 23.3447L94.2598 10.5919L90.0325 10.5919L90 25.7174L100.796 25.7174L100.796 33L101.381 33C103.852 33 104.893 31.9785 105.023 30.0342L105.023 25.7174L112.177 25.7174C114.063 25.7174 115.689 24.2345 115.689 22.2902L115.689 13.0963C115.721 11.7452 114.55 10.5589 113.087 10.5589ZM111.591 21.6641C111.591 22.5539 110.876 23.2788 109.998 23.3118L105.023 23.3118L105.023 13.0634L111.591 13.0634L111.591 21.6641ZM142.255 7.4943L132.175 7.46135L124.728 7.46135L124.728 9.99874L132.175 9.99874L141.085 10.0317L141.052 28.2877C141.052 29.1774 140.337 29.7706 139.459 29.7706L132.142 29.7376L123.395 29.7047L123.428 7.46136L119.623 7.46136L119.591 32.2421L132.142 32.275L141.345 32.275C143.263 32.308 144.824 30.7592 144.857 28.815L144.857 28.7161L144.889 10.1635C144.922 8.71357 143.751 7.49431 142.32 7.49431L142.255 7.49431L142.255 7.4943Z" fill="rgb(34,24,20)" fill-rule="nonzero" />
		<path id="矢量 94" d="M125 24.615L125 27L140 27L140 24.615L138.117 24.615L139.286 23.0973C137.695 21.7035 136.396 20.9912 136.396 20.9912L134.935 22.385L136.981 24.615L134.221 24.615L134.221 20.7124L139.903 20.7124L139.903 18.3584L134.221 18.3584L134.221 15.4159L139.903 15.4159L139.903 13.031L132.468 13L125.195 13L125.195 15.385L130.292 15.385L130.292 18.2965L125.195 18.2965L125.195 20.6814L130.292 20.6814L130.292 24.5841L125 24.615L125 24.615Z" fill="rgb(34,24,20)" fill-rule="nonzero" />
	</g>
</svg>
