<svg viewBox="0 0 179.384 55.1777" xmlns="http://www.w3.org/2000/svg" xmlns:xlink="http://www.w3.org/1999/xlink" width="179.383789" height="55.177734" fill="none" customFrame="#000000">
	<g id="组合 152">
		<path id="矢量 59" d="M54.3947 33.9968C50.1104 28.5929 45.3359 23.6637 40.0713 19.2093C39.4874 18.6837 38.8322 18.2716 38.1056 17.9731C37.3789 17.6745 36.6232 17.5069 35.8385 17.4702C35.1046 17.493 34.3981 17.6441 33.7191 17.9236C33.0401 18.2031 32.432 18.5931 31.8948 19.0937C31.6635 19.3249 31.3151 19.6155 30.9088 19.964C28.0088 22.3999 18.9635 30.6921 18.7307 30.9233C18.0177 31.6074 17.1672 31.9553 16.1791 31.9671C15.0852 31.8691 14.1576 31.4243 13.3963 30.6327C10.7631 28.462 8.30789 26.1057 6.03069 23.564C3.82756 21.064 1.97131 18.8624 1.97131 18.8624C1.97131 18.8624 1.56506 19.6749 1.33381 20.3124C1.21052 20.6307 1.22979 20.94 1.39163 21.2405C5.66579 26.6507 10.421 31.5987 15.6573 36.0843C16.2308 36.626 16.8825 37.0468 17.6123 37.3466C18.3421 37.6464 19.1013 37.8053 19.8901 37.8233C20.624 37.8006 21.3305 37.6495 22.0094 37.37C22.6884 37.0905 23.2966 36.7004 23.8338 36.1999C24.0651 35.9687 24.4135 35.678 24.8198 35.3296C27.7198 32.8937 33.2276 27.8483 35.7791 25.4718C36.3588 24.9499 36.7651 24.6015 36.9385 24.428C37.6515 23.744 38.502 23.396 39.4901 23.3843C40.5712 23.5089 41.4988 23.9537 42.2729 24.7187C43.8963 26.1108 46.5057 28.5452 49.6369 31.7937C51.8979 34.2296 53.6994 36.4327 53.6994 36.4905C53.6994 36.4905 54.1057 35.6202 54.3369 35.0405C54.5555 34.7037 54.5748 34.3557 54.3947 33.9968Z" fill="rgb(141,194,31)" fill-rule="nonzero" />
		<path id="矢量 60" d="M25.1682 10.0467C19.9261 14.4115 14.9198 19.0318 10.1494 23.9076C11.286 25.1348 12.5037 26.2754 13.8025 27.3295C13.938 27.4447 14.0909 27.5278 14.2613 27.5787C14.4316 27.6297 14.6051 27.6441 14.7815 27.6221C14.958 27.6002 15.1226 27.5436 15.2752 27.4524C15.4279 27.3612 15.5558 27.2432 15.6588 27.0982C19.6604 23.0357 27.8947 15.7904 28.9963 14.9201C29.325 14.604 29.6795 14.3201 30.0599 14.0685C30.4402 13.8169 30.8401 13.6016 31.2595 13.4226C31.679 13.2437 32.1111 13.104 32.556 13.0036C33.0008 12.9032 33.4511 12.8437 33.9067 12.8252C34.3624 12.8066 34.816 12.8293 35.2675 12.8932C35.7191 12.957 36.1611 13.0611 36.5938 13.2054C37.0264 13.3496 37.4425 13.5317 37.842 13.7516C38.2415 13.9714 38.6179 14.2255 38.9713 14.5138C45.1833 19.5315 50.6338 25.2721 55.3228 31.7357C55.3228 31.7357 55.4963 30.8654 55.6135 30.1123C55.7132 29.6368 55.6362 29.192 55.3822 28.7779C47.8432 17.9342 39.8369 11.2076 36.7666 9.52479C35.8841 8.98513 34.942 8.58637 33.9402 8.32851C32.9385 8.07065 31.9209 7.96496 30.8876 8.01146C29.8542 8.05796 28.8502 8.2546 27.8757 8.60139C26.9011 8.94817 25.9986 9.42993 25.1682 10.0467L25.1682 10.0467Z" fill="rgb(0,132,207)" fill-rule="nonzero" />
		<path id="矢量 61" d="M16.7014 4.42316C11.9886 8.24992 7.48491 12.3088 3.19043 16.5997C4.21169 17.8166 5.29398 18.9765 6.4373 20.0794C6.5133 20.1555 6.60196 20.2114 6.70329 20.2473C6.80462 20.2833 6.90875 20.2956 7.01567 20.2844C7.12259 20.2731 7.22188 20.2395 7.31355 20.1833C7.40521 20.1271 7.48032 20.054 7.53887 19.9638C12.642 15.0341 18.1514 9.99035 21.3998 7.49972C26.7936 3.32472 33.1717 2.91847 39.3764 7.84816C41.9776 9.92989 44.4323 12.1721 46.7404 14.5747C50.0278 18.2085 53.0435 22.0554 55.7873 26.1153C55.766 25.2943 55.6691 24.4824 55.4967 23.6794C55.4223 23.3544 55.3061 23.045 55.1482 22.7513C53.3253 19.4166 51.1795 16.3047 48.7107 13.4153C41.7529 5.2919 37.4092 2.85753 34.5623 1.34972C30.7936 -0.564343 23.5451 -1.14403 16.7014 4.42315L16.7014 4.42316Z" fill="rgb(0,132,207)" fill-rule="nonzero" />
		<path id="矢量 62" d="M30.6186 45.1313C35.8606 40.767 40.8668 36.1472 45.6373 31.272C44.4939 30.0341 43.2762 28.8742 41.9842 27.7923C41.8487 27.677 41.6958 27.594 41.5254 27.543C41.3551 27.4921 41.1816 27.4776 41.0052 27.4996C40.8287 27.5216 40.6642 27.5782 40.5115 27.6693C40.3588 27.7605 40.231 27.8786 40.1279 28.0235C36.1264 32.086 27.892 39.3313 26.7904 40.2017C26.4589 40.5181 26.1017 40.8021 25.7188 41.0539C25.3359 41.3057 24.9335 41.5211 24.5117 41.7001C24.0898 41.8791 23.6553 42.0188 23.2082 42.1192C22.7611 42.2196 22.3086 42.279 21.8507 42.2976C21.3928 42.3161 20.9369 42.2934 20.4832 42.2295C20.0294 42.1656 19.585 42.0615 19.1501 41.9172C18.7151 41.7729 18.2966 41.5907 17.8946 41.3707C17.4926 41.1507 17.1136 40.8965 16.7576 40.6079C10.5368 35.5919 5.10555 29.8315 0.463863 23.3267C0.463863 23.3267 0.293551 24.197 0.1748 24.9501C0.0750455 25.4255 0.152129 25.8703 0.406051 26.2845C7.9498 37.1282 15.9482 43.8548 19.0217 45.536C19.4549 45.8157 19.9068 46.0609 20.3774 46.2717C20.8479 46.4825 21.3317 46.6564 21.8288 46.7935C22.3258 46.9306 22.8304 47.0293 23.3425 47.0896C23.8546 47.1498 24.3683 47.171 24.8836 47.153C25.3989 47.135 25.9099 47.0781 26.4165 46.9823C26.9232 46.8865 27.4196 46.7529 27.9059 46.5814C28.3922 46.41 28.8627 46.2028 29.3175 45.9597C29.7722 45.7166 30.2059 45.4405 30.6186 45.1313Z" fill="rgb(0,132,207)" fill-rule="nonzero" />
		<path id="矢量 63" d="M39.0844 50.7544C43.7972 46.9271 48.3009 42.8678 52.5953 38.5763C51.5745 37.36 50.4928 36.2006 49.35 35.0982C49.274 35.0221 49.1853 34.9661 49.084 34.9302C48.9827 34.8943 48.8786 34.882 48.7716 34.8932C48.6647 34.9044 48.5654 34.9381 48.4738 34.9943C48.3821 35.0504 48.307 35.1236 48.2484 35.2138C43.1453 40.1435 37.6359 45.1888 34.3891 47.681C28.9953 51.856 22.6172 52.2622 16.4125 47.3325C13.8108 45.2513 11.3556 43.0097 9.04688 40.6075C5.75947 36.9737 2.74385 33.1268 0 29.0669C0.0241503 29.8875 0.121025 30.6995 0.290625 31.5028C0.365035 31.8279 0.481181 32.1372 0.639062 32.431C2.46198 35.7656 4.60781 38.8776 7.07656 41.7669C14.0359 49.8919 18.3844 52.3216 21.2266 53.8294C25 55.7419 32.2422 56.3216 39.0844 50.7544L39.0844 50.7544Z" fill="rgb(0,132,207)" fill-rule="nonzero" />
		<path id="矢量 64" d="M81.184 30.3091L78.5121 30.3091L78.5121 22.9497L68.5762 22.9497L68.5762 9.39345L78.5121 9.39345L78.5121 4.52783L81.184 4.52783L81.184 9.39345L91.184 9.39345L91.184 22.9497L81.184 22.9497L81.184 30.3091L81.184 30.3091ZM81.184 11.77L81.184 20.5747L88.6215 20.5747L88.6215 11.7685L81.184 11.77ZM71.184 11.77L71.184 20.5747L78.5121 20.5747L78.5121 11.7685L71.184 11.77Z" fill="rgb(0,132,207)" fill-rule="nonzero" />
		<path id="矢量 65" d="M112.562 17.853L110.761 19.2437L110.936 19.4155C111.838 20.3628 112.671 21.367 113.436 22.428L113.611 22.6015L115.528 21.153L115.351 20.978C114.515 19.9628 113.643 18.9789 112.736 18.0265L112.562 17.853Z" fill="rgb(0,132,207)" fill-rule="nonzero" />
		<path id="矢量 66" d="M116.455 22.9498L110.005 22.9498L110.005 17.6201L115.525 17.6201L115.525 15.4248L110.005 15.4248L110.005 12.0592L116.049 12.0592L116.049 9.7998L101.638 9.7998L101.638 12.0592L107.622 12.0592L107.622 15.4248L102.103 15.4248L102.103 17.6201L107.624 17.6201L107.624 22.9498L101.231 22.9498L101.231 25.2092L116.455 25.2092L116.455 22.9498Z" fill="rgb(0,132,207)" fill-rule="nonzero" />
		<path id="矢量 67" d="M120.348 29.6748L97.3389 29.6748L97.3389 5.45605L120.348 5.45605L120.348 29.6748ZM99.8389 7.77324L99.8389 27.4123L117.908 27.4123L117.908 7.77324L99.8389 7.77324Z" fill="rgb(0,132,207)" fill-rule="nonzero" />
		<path id="矢量 68" d="M135.978 19.4171C134.873 18.4327 131.853 15.9999 131.853 15.9999L131.853 14.7249L135.455 14.7249L135.455 12.4077L131.853 12.4077L131.853 8.69678C133.09 8.52592 134.31 8.27592 135.514 7.94678L135.055 5.57178C133.56 5.94234 132.049 6.23192 130.523 6.44053C127.555 6.84677 125.809 7.02021 125.809 7.02021L126.1 9.3374C126.1 9.3374 128.075 9.10615 129.586 8.86865L129.586 12.4077L125.523 12.4077L125.523 14.7249L129.242 14.7249C128.267 17.7526 126.871 20.5718 125.055 23.1827L126.798 25.0358C127.878 23.4596 128.807 21.7992 129.586 20.0546L129.586 30.3671L131.969 30.3671L131.969 19.0702C132.841 19.8817 133.654 20.6348 134.409 21.3296L134.586 21.5093L136.269 19.6483L135.978 19.4171Z" fill="rgb(0,132,207)" fill-rule="nonzero" />
		<path id="矢量 69" d="M144.403 17.6201C144.66 17.2443 144.854 16.8386 144.985 16.4029L142.602 15.9967C143.071 15.7654 143.474 15.4748 143.88 15.2436C146.476 13.6958 148.49 11.5911 149.922 8.92949L149.98 8.87168L149.98 6.72949L141.73 6.72949C142.004 6.31523 142.256 5.88815 142.486 5.44824L142.602 5.22324L140.336 4.35449L140.219 4.52793C138.875 7.20675 137.035 9.4854 134.7 11.3639C134.7 11.3639 135.921 12.3482 136.675 12.8123C137.982 11.6731 139.163 10.4164 140.219 9.04199L147.25 9.04199C146.192 10.5382 144.914 11.8142 143.416 12.8701C142.486 12.0592 141.677 11.4217 140.51 10.4951L140.335 10.3795L138.825 12.0014L139 12.1748C140.046 13.0436 140.685 13.5654 141.383 14.2607C139.421 15.3042 137.367 16.1167 135.222 16.6982C135.222 16.6982 136.733 18.7295 136.785 18.7295C138.121 18.2607 140.91 17.0498 142.13 16.4701C141.232 17.9549 140.146 19.2875 138.875 20.4681C137.603 21.6487 136.193 22.6316 134.646 23.417C135.231 24.0324 135.851 24.6115 136.505 25.1545C139.044 23.9028 141.213 22.184 143.013 19.9982L148.296 19.9982C147.979 21.1437 147.458 22.1878 146.735 23.1306C146.011 24.0733 145.137 24.8459 144.113 25.4482C143.241 24.5795 142.369 23.7107 141.324 22.7842L139.646 24.2248C140.575 25.0935 141.389 25.9623 142.086 26.6576C139.534 27.6142 136.897 28.1741 134.177 28.3373L135.106 30.3685C135.106 30.3685 148.355 30.0217 151.085 19.8826L151.085 17.6779L144.403 17.6779L144.403 17.6201Z" fill="rgb(0,132,207)" fill-rule="nonzero" />
		<path id="矢量 70" d="M155.501 6.9624L166.309 6.9624L166.309 9.3374L155.501 9.3374L155.501 6.9624Z" fill="rgb(0,132,207)" fill-rule="nonzero" />
		<path id="矢量 71" d="M166.781 25.5562C166.019 23.6452 164.798 20.9812 163.927 19.0687L163.812 18.8374L161.605 19.8218L161.72 20.053C162.302 21.328 162.825 22.5437 163.347 23.8765L157.653 25.2093C159.154 22.2706 160.374 19.2195 161.312 16.0562L167.297 16.0562L167.297 13.6812L154.397 13.6812L154.397 16.0562L158.639 16.0562C157.779 19.3812 156.52 22.5479 154.863 25.5562C154.725 25.8347 154.531 26.0665 154.281 26.2515L154.978 27.9327C154.978 27.9327 161.892 26.078 163.984 25.7312L164.217 26.3687L166.781 25.5562Z" fill="rgb(0,132,207)" fill-rule="nonzero" />
		<path id="矢量 72" d="M172.526 9.85928C172.584 8.17959 172.584 6.4999 172.584 4.81865L172.584 4.5874L169.962 4.5874L169.962 9.85928L166.599 9.85928L166.599 12.2921L169.912 12.2921L169.912 15.5358C170.036 17.3711 169.859 19.177 169.381 20.9533C168.903 22.7297 168.151 24.3806 167.123 25.9062C166.245 27.1335 165.16 28.1376 163.868 28.9187L165.785 30.7718C165.785 30.7718 172.348 27.3546 172.348 16.578L172.406 12.3483L176.826 12.3483C176.768 16.7515 176.593 21.0983 176.357 25.2093C176.299 26.4843 175.776 27.1202 174.613 27.1202L171.712 27.1202C171.887 27.8733 172.181 29.7265 172.181 29.7265L175.257 29.7265C177.465 29.6686 178.685 28.3937 178.86 25.8452C179.093 21.9061 179.267 16.6265 179.384 10.2046L179.384 9.9749L172.526 9.9749L172.526 9.85928Z" fill="rgb(0,132,207)" fill-rule="nonzero" />
		<path id="矢量 73" d="M91.9354 40.5608C91.6097 40.2864 91.2415 40.0932 90.8307 39.9811C90.0755 39.7439 89.3203 39.7439 88.565 39.9811C88.2421 40.0617 87.9322 40.1773 87.6354 40.328C87.3608 40.4687 87.1092 40.6426 86.8807 40.8499C86.765 40.9655 86.6479 41.0233 86.59 41.139L86.59 34.8843L84.5557 34.8843L84.5557 50.2937L86.5869 50.2937L86.5869 43.1655C86.922 42.7037 87.3288 42.3172 87.8072 42.0061C88.2718 41.7254 88.7754 41.59 89.3182 41.5999C89.8512 41.5492 90.2965 41.7232 90.6541 42.1218C90.9821 42.6351 91.1175 43.195 91.0603 43.8015L91.0603 50.353L93.0385 50.353L93.0385 43.5733C93.0507 42.9385 92.9539 42.3208 92.7479 41.7202C92.5781 41.2629 92.3072 40.8765 91.9354 40.5608L91.9354 40.5608Z" fill="rgb(0,132,207)" fill-rule="nonzero" />
		<path id="矢量 74" d="M95.2471 36.0435L97.2814 36.0435L97.2814 38.245L95.2471 38.245L95.2471 36.0435ZM95.2471 40.0981L97.2814 40.0981L97.2814 50.3513L95.2471 50.3513L95.2471 40.0981Z" fill="rgb(0,132,207)" fill-rule="nonzero" />
		<path id="矢量 75" d="M106.925 40.7344C106.61 40.4303 106.243 40.2178 105.822 40.0969C105.013 39.8717 104.2 39.8524 103.381 40.0391C103.059 40.1191 102.749 40.2342 102.452 40.3844C102.191 40.5447 101.939 40.7187 101.697 40.9063C101.547 41.0271 101.412 41.1625 101.291 41.3125L100.999 40.1547L99.3721 40.1547L99.3721 50.4094L101.347 50.4094L101.347 43.2844C101.69 42.8058 102.116 42.4193 102.625 42.125C103.09 41.8443 103.593 41.7089 104.136 41.7188C104.649 41.68 105.075 41.854 105.414 42.2406C105.775 42.7648 105.931 43.3439 105.883 43.9781L105.883 50.525L107.855 50.525L107.855 43.5735C107.863 42.9767 107.766 42.3975 107.564 41.836C107.504 41.3803 107.291 41.0131 106.925 40.7344L106.925 40.7344Z" fill="rgb(0,132,207)" fill-rule="nonzero" />
		<path id="矢量 76" d="M112.736 50.4672C112.254 50.4866 111.789 50.4095 111.339 50.236C110.928 50.0729 110.56 49.8411 110.236 49.5407C109.936 49.2376 109.704 48.8897 109.539 48.4969C109.396 48.0449 109.319 47.5819 109.308 47.1079C109.308 46.6242 109.405 46.1607 109.598 45.7172C109.804 45.3186 110.075 44.9707 110.411 44.6735C110.782 44.3922 111.188 44.1797 111.631 44.036C112.138 43.8646 112.659 43.7875 113.194 43.8047C113.671 43.812 114.147 43.8495 114.62 43.9172L114.645 43.9172C114.983 43.96 115.313 44.0371 115.634 44.1485L115.634 43.7422C115.649 43.5075 115.629 43.2757 115.575 43.0469C115.527 42.8869 115.468 42.7306 115.4 42.5782C115.222 42.26 114.973 42.0137 114.653 41.8391C114.171 41.6293 113.667 41.533 113.142 41.5501C112.672 41.5258 112.207 41.5643 111.747 41.6657L111.511 41.7329C111.156 41.8233 110.809 41.9363 110.469 42.0719L110.179 42.1829L110.179 40.4454L110.295 40.3876C110.361 40.3657 110.434 40.336 110.512 40.3032C110.649 40.2412 110.79 40.1892 110.934 40.1469C111.051 40.1204 111.183 40.0969 111.312 40.0688C111.442 40.0407 111.575 40.011 111.69 39.9829C111.825 39.9525 111.962 39.9317 112.1 39.9204C112.231 39.9063 112.367 39.8922 112.503 39.8657C112.79 39.818 113.079 39.7987 113.37 39.8079C114.273 39.783 115.127 39.9762 115.931 40.3875C116.585 40.726 117.069 41.2281 117.384 41.8938C117.543 42.1263 117.582 42.3773 117.501 42.6469C117.551 42.9539 117.57 43.2627 117.559 43.5735L117.559 50.236L115.815 50.236L115.698 49.3657C115.645 49.397 115.598 49.4361 115.558 49.4828C115.516 49.5295 115.467 49.568 115.412 49.5985C115.182 49.7891 114.931 49.9453 114.658 50.0672C114.382 50.2069 114.092 50.3033 113.787 50.3563C113.44 50.4219 113.089 50.4589 112.736 50.4672L112.736 50.4672ZM113.548 45.7172C112.996 45.6714 112.493 45.8063 112.037 46.1219C111.648 46.4114 111.474 46.7979 111.514 47.2813C111.519 47.5188 111.558 47.7505 111.631 47.9766C111.699 48.182 111.816 48.3554 111.979 48.4969C112.127 48.6429 112.301 48.7392 112.503 48.786C112.733 48.8415 112.967 48.8686 113.204 48.8672C113.502 48.8725 113.791 48.8261 114.072 48.7282C114.35 48.6172 114.576 48.5047 114.797 48.3954L114.828 48.3797C114.968 48.3048 115.1 48.2162 115.222 48.1141C115.287 48.0626 115.348 48.0157 115.409 47.9751C115.517 47.9124 115.613 47.8358 115.698 47.7454L115.698 46.0063C115.465 45.9485 115.169 45.8891 114.886 45.8313C114.443 45.762 113.997 45.724 113.548 45.7173L113.548 45.7172Z" fill="rgb(0,132,207)" fill-rule="nonzero" />
		<path id="矢量 77" d="M80.7778 45.8906C80.5341 46.3057 80.2411 46.6824 79.8987 47.0208C79.5564 47.3591 79.1763 47.6478 78.7584 47.8866C78.3406 48.1255 77.899 48.3066 77.4337 48.4299C76.9684 48.5532 76.4951 48.6146 76.0138 48.614C75.6543 48.614 75.2984 48.579 74.9458 48.5089C74.5933 48.4387 74.251 48.3349 73.9189 48.1973C73.5868 48.0598 73.2713 47.8912 72.9725 47.6915C72.6736 47.4918 72.3971 47.2648 72.1429 47.0107C71.8888 46.7565 71.6618 46.48 71.4621 46.1811C71.2624 45.8823 71.0938 45.5668 70.9563 45.2347C70.8187 44.9026 70.7149 44.5603 70.6448 44.2078C70.5746 43.8553 70.5396 43.4993 70.5396 43.1398C70.5396 42.7804 70.5746 42.4244 70.6448 42.0719C70.7149 41.7193 70.8187 41.377 70.9563 41.0449C71.0938 40.7128 71.2624 40.3974 71.4621 40.0985C71.6618 39.7996 71.8888 39.5231 72.1429 39.269C72.3971 39.0148 72.6736 38.7879 72.9725 38.5882C73.2713 38.3885 73.5868 38.2199 73.9189 38.0823C74.251 37.9448 74.5933 37.8409 74.9458 37.7708C75.2984 37.7007 75.6543 37.6656 76.0138 37.6656C76.4869 37.6693 76.952 37.7323 77.409 37.8546C77.8661 37.9769 78.3005 38.1545 78.7122 38.3876C79.124 38.6207 79.4999 38.9017 79.84 39.2306C80.18 39.5596 80.4734 39.9259 80.72 40.3297L80.7778 40.4406L82.9278 40.4406L82.8122 40.1515C82.699 39.8928 82.5715 39.6412 82.4296 39.397C82.2878 39.1527 82.1325 38.9173 81.9639 38.6907C81.7952 38.4641 81.6143 38.2478 81.421 38.0418C81.2277 37.8359 81.0234 37.6415 80.808 37.4588C80.5926 37.2761 80.3675 37.1061 80.1328 36.949C79.898 36.7919 79.6552 36.6486 79.4041 36.5192C79.1531 36.3897 78.8955 36.2749 78.6313 36.1748C78.3672 36.0747 78.0983 35.9899 77.8245 35.9203C77.5507 35.8508 77.2739 35.7971 76.994 35.7591C76.7141 35.7211 76.433 35.6991 76.1506 35.6931C75.8682 35.6871 75.5863 35.6971 75.3051 35.7232C75.0238 35.7493 74.745 35.7913 74.4685 35.8491C74.192 35.9069 73.9197 35.9803 73.6516 36.0691C73.3834 36.1579 73.1212 36.2617 72.8649 36.3804C72.6086 36.4991 72.3598 36.6319 72.1186 36.7789C71.8774 36.9259 71.6454 37.0861 71.4224 37.2595C71.1994 37.433 70.987 37.6185 70.7852 37.8161C70.5834 38.0137 70.3934 38.2221 70.2153 38.4413C70.0372 38.6605 69.8721 38.8892 69.72 39.1272C69.5679 39.3652 69.4298 39.6111 69.3057 39.8648C69.1816 40.1186 69.0723 40.3785 68.9778 40.6447C68.8833 40.9109 68.8042 41.1816 68.7405 41.4568C68.6768 41.732 68.629 42.0099 68.5969 42.2905C68.5649 42.5711 68.5488 42.8527 68.5488 43.1352C68.5488 43.4176 68.5649 43.6992 68.5969 43.9798C68.629 44.2604 68.6768 44.5384 68.7405 44.8135C68.8042 45.0887 68.8833 45.3594 68.9778 45.6256C69.0723 45.8918 69.1816 46.1517 69.3057 46.4055C69.4298 46.6592 69.5679 46.9051 69.72 47.1431C69.8721 47.3811 70.0372 47.6098 70.2153 47.829C70.3934 48.0482 70.5834 48.2566 70.7852 48.4542C70.9871 48.6518 71.1995 48.8373 71.4224 49.0108C71.6454 49.1842 71.8774 49.3444 72.1186 49.4914C72.3598 49.6384 72.6086 49.7712 72.8649 49.8899C73.1212 50.0086 73.3835 50.1124 73.6516 50.2012C73.9197 50.29 74.192 50.3634 74.4685 50.4212C74.745 50.479 75.0238 50.521 75.3051 50.5471C75.5863 50.5732 75.8682 50.5832 76.1506 50.5772C76.433 50.5712 76.7141 50.5492 76.994 50.5112C77.2739 50.4732 77.5507 50.4195 77.8245 50.3499C78.0983 50.2804 78.3672 50.1956 78.6314 50.0955C78.8955 49.9953 79.1531 49.8805 79.4041 49.7511C79.6552 49.6216 79.8981 49.4784 80.1328 49.3213C80.3675 49.1641 80.5926 48.9942 80.808 48.8115C81.0234 48.6288 81.2277 48.4344 81.421 48.2284C81.6143 48.0224 81.7952 47.8062 81.9639 47.5796C82.1325 47.353 82.2878 47.1176 82.4296 46.8733C82.5715 46.629 82.699 46.3775 82.8122 46.1187L82.9278 45.8297L80.7778 45.8297L80.7778 45.8906Z" fill="rgb(0,132,207)" fill-rule="nonzero" />
		<path id="矢量 78" d="M132.086 44.0953C131.795 44.7906 131.447 45.7172 130.981 46.9344C130.575 45.8406 130.226 44.9031 129.876 44.0953L126.565 36.1016L123.776 36.1016L123.776 50.4109L125.869 50.4109L125.869 43.5172C125.869 42.1844 125.811 40.7359 125.753 39.1719C126.101 40.1562 126.508 41.0828 126.858 42.0109L130.4 50.4109L131.445 50.4109L134.99 42.0109C135.339 41.2 135.745 40.2156 136.095 39.1719C136.037 40.7344 135.979 42.1844 135.979 43.5172L135.979 50.4109L138.07 50.4109L138.07 36.1016L135.281 36.1016L132.086 44.0953Z" fill="rgb(0,132,207)" fill-rule="nonzero" />
		<path id="矢量 79" d="M156.49 50.5841C156.093 50.5878 155.706 50.5299 155.328 50.4107C155.016 50.3215 154.725 50.1866 154.456 50.006C154.223 49.8974 154.03 49.7411 153.874 49.5372L153.759 49.4247L153.462 50.3513L151.899 50.3513L151.899 34.9419L153.876 34.9419L153.876 40.7935C154.171 40.5254 154.502 40.313 154.868 40.156C155.403 39.9097 155.965 39.7935 156.554 39.8075C156.812 39.8157 157.067 39.8454 157.32 39.8966L157.476 39.9247C157.823 39.9881 158.153 40.1037 158.463 40.2716C158.787 40.4642 159.097 40.6767 159.393 40.9091C159.71 41.1995 159.982 41.5276 160.207 41.8935C160.345 42.1341 160.46 42.3919 160.582 42.6638C160.665 42.8481 160.751 43.0372 160.845 43.2263C161.02 43.812 161.097 44.4104 161.076 45.0216C161.074 45.8549 160.939 46.6658 160.67 47.4544C160.415 48.0906 160.067 48.6698 159.623 49.1919C159.222 49.6355 158.748 49.9784 158.202 50.2207C157.655 50.4629 157.083 50.5835 156.485 50.5825L156.49 50.5841ZM156.178 41.581C155.714 41.5809 155.275 41.6851 154.86 41.8935C154.467 42.058 154.119 42.2897 153.815 42.5888L153.815 47.6294L154.162 47.9763C154.326 48.1252 154.5 48.2601 154.685 48.381C154.831 48.4833 154.987 48.565 155.154 48.6263C155.229 48.6575 155.31 48.6903 155.385 48.7278C155.652 48.8008 155.923 48.8399 156.199 48.845C156.607 48.8611 156.997 48.784 157.368 48.6138C157.682 48.4092 157.952 48.1587 158.181 47.8622C158.438 47.5131 158.612 47.1266 158.704 46.7028C158.827 46.2083 158.885 45.7062 158.879 45.1966C158.904 44.5468 158.827 43.9093 158.648 43.2841C158.517 42.8861 158.303 42.5387 158.007 42.2419C157.743 42.0248 157.453 41.8509 157.137 41.72C156.824 41.6288 156.505 41.5824 156.179 41.581L156.178 41.581Z" fill="rgb(0,132,207)" fill-rule="nonzero" />
		<path id="矢量 80" d="M162.532 40.0981L164.567 40.0981L164.567 50.3513L162.532 50.3513L162.532 40.0981ZM162.532 36.0435L164.567 36.0435L164.567 38.245L162.532 38.245L162.532 36.0435ZM166.832 34.9419L168.867 34.9419L168.867 50.3513L166.832 50.3513L166.832 34.9419Z" fill="rgb(0,132,207)" fill-rule="nonzero" />
		<path id="矢量 81" d="M175.606 50.6419C174.917 50.636 174.239 50.5396 173.575 50.3529C172.943 50.1709 172.381 49.862 171.888 49.4263C171.391 48.9728 171.022 48.4317 170.783 47.8028C170.485 47.019 170.35 46.2081 170.377 45.37C170.378 44.5367 170.514 43.7258 170.783 42.9372C171.038 42.3017 171.387 41.7225 171.83 41.1997C172.261 40.7445 172.766 40.3971 173.346 40.1576C173.9 39.9175 174.48 39.7988 175.085 39.8013C175.645 39.8001 176.187 39.899 176.711 40.0982C177.227 40.3064 177.672 40.6158 178.047 41.0263C178.42 41.5229 178.71 42.0635 178.919 42.6482C179.181 43.3994 179.258 44.1692 179.15 44.9576L179.15 45.7685L172.353 45.7685C172.328 46.2299 172.406 46.6737 172.585 47.0997C172.776 47.4737 173.028 47.8018 173.339 48.0841C173.664 48.3589 174.032 48.5521 174.442 48.6638C174.899 48.7868 175.365 48.8452 175.838 48.8388C176.306 48.8341 176.771 48.795 177.233 48.7216C177.674 48.6606 178.1 48.545 178.511 48.3747L178.744 48.2591L178.744 50.0044L178.627 50.0622C178.197 50.2483 177.752 50.3832 177.291 50.4669C176.736 50.586 176.174 50.6443 175.606 50.6419L175.606 50.6419ZM174.981 41.6185C174.647 41.6166 174.33 41.689 174.03 41.8357C173.741 41.956 173.49 42.13 173.275 42.3575C173.046 42.5927 172.872 42.863 172.752 43.1685C172.64 43.4283 172.563 43.6981 172.521 43.9778L177.052 43.9778C177.046 43.7496 177.017 43.5246 176.963 43.3028L176.939 43.1685C176.864 42.868 176.729 42.5977 176.533 42.3575C176.372 42.1189 176.159 41.9449 175.892 41.8357C175.609 41.686 175.308 41.6136 174.988 41.6185L174.981 41.6185ZM145.044 50.5888C144.69 50.5888 144.339 50.5543 143.992 50.4852C143.645 50.4161 143.308 50.3139 142.981 50.1784C142.654 50.043 142.343 49.8769 142.049 49.6803C141.755 49.4837 141.482 49.2602 141.232 49.0099C140.982 48.7596 140.758 48.4873 140.562 48.193C140.365 47.8987 140.199 47.5881 140.064 47.2611C139.928 46.934 139.826 46.597 139.757 46.2498C139.688 45.9027 139.653 45.5521 139.653 45.1982C139.653 44.8442 139.688 44.4936 139.757 44.1465C139.826 43.7993 139.928 43.4623 140.064 43.1353C140.199 42.8082 140.365 42.4976 140.562 42.2033C140.758 41.909 140.982 41.6367 141.232 41.3864C141.482 41.1361 141.755 40.9127 142.049 40.716C142.343 40.5194 142.654 40.3533 142.981 40.2179C143.308 40.0824 143.645 39.9802 143.992 39.9111C144.339 39.8421 144.69 39.8075 145.044 39.8075C145.397 39.8122 145.746 39.8506 146.091 39.9228C146.436 39.9949 146.772 40.0995 147.097 40.2364C147.422 40.3734 147.731 40.5402 148.024 40.7368C148.317 40.9335 148.588 41.1564 148.838 41.4055C149.088 41.6546 149.312 41.9253 149.509 42.2177C149.707 42.51 149.874 42.8186 150.012 43.1433C150.15 43.4681 150.256 43.803 150.329 44.1482C150.402 44.4933 150.441 44.8423 150.447 45.195C150.447 45.5494 150.411 45.9004 150.342 46.2479C150.272 46.5954 150.17 46.9328 150.034 47.2601C149.898 47.5873 149.731 47.8982 149.534 48.1927C149.337 48.4872 149.112 48.7596 148.862 49.01C148.611 49.2604 148.338 49.4839 148.043 49.6806C147.748 49.8773 147.437 50.0434 147.11 50.1788C146.782 50.3142 146.445 50.4165 146.097 50.4854C145.749 50.5544 145.398 50.5889 145.044 50.5888ZM145.044 41.6091C144.806 41.6091 144.571 41.6323 144.338 41.6787C144.105 41.725 143.878 41.7937 143.659 41.8847C143.439 41.9756 143.23 42.0872 143.033 42.2192C142.835 42.3513 142.652 42.5014 142.484 42.6695C142.316 42.8376 142.166 43.0204 142.034 43.2181C141.902 43.4157 141.79 43.6244 141.699 43.844C141.608 44.0636 141.54 44.29 141.493 44.5231C141.447 44.7563 141.424 44.9917 141.424 45.2294C141.424 45.4671 141.447 45.7026 141.493 45.9357C141.54 46.1688 141.608 46.3952 141.699 46.6148C141.79 46.8345 141.902 47.0431 142.034 47.2407C142.166 47.4384 142.316 47.6213 142.484 47.7894C142.652 47.9574 142.835 48.1075 143.033 48.2396C143.23 48.3717 143.439 48.4832 143.659 48.5741C143.878 48.6651 144.105 48.7338 144.338 48.7802C144.571 48.8265 144.806 48.8497 145.044 48.8497C145.283 48.8448 145.519 48.8172 145.752 48.7671C145.985 48.7169 146.212 48.6451 146.431 48.5515C146.651 48.4579 146.859 48.3444 147.057 48.2108C147.255 48.0772 147.438 47.9261 147.607 47.7574C147.776 47.5887 147.927 47.4055 148.061 47.2079C148.195 47.0102 148.309 46.8016 148.402 46.5821C148.496 46.3626 148.568 46.1362 148.618 45.9029C148.669 45.6696 148.697 45.4337 148.702 45.195C148.699 44.9571 148.674 44.7218 148.625 44.4889C148.576 44.256 148.505 44.0302 148.412 43.8113C148.318 43.5924 148.205 43.3846 148.071 43.1881C147.937 42.9915 147.785 42.8099 147.615 42.6432C147.445 42.4765 147.261 42.3279 147.062 42.1974C146.863 42.067 146.653 41.9571 146.433 41.8679C146.212 41.7786 145.985 41.7117 145.751 41.6671C145.518 41.6225 145.282 41.6011 145.044 41.6029L145.044 41.6091Z" fill="rgb(0,132,207)" fill-rule="nonzero" />
	</g>
</svg>
