<svg viewBox="0 0 176.744 57.9043" xmlns="http://www.w3.org/2000/svg" xmlns:xlink="http://www.w3.org/1999/xlink" width="176.744141" height="57.904297" fill="none" customFrame="#000000">
	<g id="组合 153">
		<path id="矢量 95" d="M28.0525 31.5039C28.4041 36.5625 28.8728 41.4844 30.865 46.1133C31.197 46.8945 31.783 47.5976 32.3689 48.2422C33.0916 49.043 34.3025 48.9844 35.1619 48.1641C36.8416 46.5625 37.4861 44.4141 38.1111 42.2852C38.5213 40.918 38.7361 39.4922 38.99 38.0859C39.1267 37.2852 39.4197 36.7773 40.3377 36.6406C41.2752 36.5039 42.1541 36.1523 43.3064 35.8203C42.9353 37.6367 42.6814 39.3164 42.2713 40.9766C41.1189 45.5469 39.7127 50.0195 36.7439 53.8086C35.4549 55.4297 33.9705 56.8164 31.9588 57.5391C29.5174 58.418 27.4275 57.6172 25.533 56.1328C23.033 54.1406 21.6072 51.3867 20.4548 48.4766C18.5213 43.6523 17.5642 38.5937 17.115 33.418C17.0955 33.125 16.9978 32.832 16.9978 32.7734C13.8142 32.0312 10.7478 31.4062 7.74 30.6055C5.57203 30.0195 3.6775 28.8281 2.115 27.1875C-0.814684 24.1602 -0.384996 20.1562 1.49 16.9141C3.89235 12.793 7.4861 9.92187 11.5095 7.55859C13.6384 6.30859 15.8845 5.27343 18.1892 4.10156C18.5017 4.82422 18.7361 5.39062 19.0291 6.07421C17.5642 6.89453 16.0408 7.53906 14.7517 8.51562C12.8181 9.98046 10.7869 11.4258 9.28298 13.2812C6.68532 16.5039 7.56422 19.6289 11.3924 21.2109C13.2088 21.9727 15.2009 22.2461 17.0955 22.7539C17.6619 19.6484 18.0525 16.8164 18.7361 14.0625C19.7322 10.0977 21.3728 6.42577 24.4197 3.51562C28.2283 -0.0976622 33.658 0.234371 36.9392 4.33593C37.7986 5.41015 38.5408 6.60156 39.3025 7.77344C39.5173 8.08594 39.5759 8.49609 39.7322 8.88672C38.4627 9.43359 37.3689 9.45312 36.1775 8.67187C34.6541 7.69531 32.6033 8.33984 31.5877 10.3711C30.533 12.4805 29.8299 14.7852 29.1853 17.0508C28.7752 18.4375 28.7556 19.9414 28.5213 21.7188C30.9041 21.0547 33.072 20.6836 35.0252 19.8438C38.2088 18.4961 41.3533 16.9922 44.3416 15.2539C45.7088 14.4531 46.9002 13.1055 47.7986 11.7578C49.6736 8.96485 48.9509 6.3086 46.1189 4.51172C45.4939 4.1211 44.8299 3.78906 44.1463 3.49609C42.3299 2.71484 41.9978 2.16797 42.1736 0C46.1384 0.195313 50.0056 0.742185 53.5994 2.53906C59.4392 5.42969 60.7869 11.0547 56.9392 16.3281C53.8924 20.4883 49.7713 23.2617 45.2595 25.5664C39.8689 28.3594 34.1267 30.0977 28.0525 31.5039L28.0525 31.5039ZM72.0369 25.4492C70.4744 25.7617 68.7556 24.0234 69.1658 22.3828C69.6541 20.4297 70.4158 18.5547 71.0798 16.6601C71.49 15.4883 71.9392 14.3555 72.5251 12.8125C73.0134 14.1992 73.3845 15.1953 73.7556 16.2695C75.4939 15.4687 77.1931 14.8242 78.697 13.8867C79.2244 13.5742 79.5173 12.5195 79.5369 11.7969C79.5955 10.1172 79.4197 8.41795 79.3415 6.71873C79.322 6.34764 79.3415 5.95701 79.3415 5.48827C81.1189 5.85936 82.0173 6.93358 82.74 8.37889C83.2087 9.33592 83.9314 10.5469 84.8103 10.8398C86.0994 11.25 87.6228 10.957 89.0095 10.957C89.283 11.4844 89.4783 11.8555 89.615 12.0898C88.5408 12.793 87.154 13.2812 86.5681 14.2383C86.0603 15.0781 86.4705 16.4844 86.4705 17.6758C89.283 17.3242 91.7439 14.1406 91.9392 11.2695C92.0173 11.7773 92.2322 12.3242 92.1541 12.793C91.6462 15.664 91.158 18.5547 90.4548 21.3867C90.2986 22.0312 89.3415 22.7539 88.6384 22.9492C87.4666 23.2812 86.783 23.789 86.3923 24.9609C85.6892 27.0898 84.5369 29.043 84.7126 31.4648C84.7908 32.539 83.9705 33.6328 83.7361 34.7656C83.4626 36.0937 83.4236 37.4805 83.1697 38.8281C83.0916 39.2383 82.6033 39.9414 82.3494 39.9023C81.7439 39.8437 81.158 39.4531 80.4353 39.1406C82.8572 37.9687 80.6697 36.8359 80.5915 35.7812L80.5915 37.1875C80.4548 37.207 80.3181 37.207 80.1619 37.2265C79.908 33.5937 79.654 29.9609 79.3806 26.1133C77.8181 26.5039 76.5486 26.7187 75.3572 27.1484C73.7165 27.7734 72.9548 27.539 72.2908 25.918C72.2322 25.7226 72.115 25.5859 72.0369 25.4492L72.0369 25.4492ZM79.1658 16.8945C75.5525 18.125 72.4666 21.6797 72.8767 23.9062C74.4002 23.3398 75.9627 22.793 77.4666 22.1484C77.9744 21.9336 78.4236 21.4844 78.8533 21.0937C80.2595 19.8047 79.3611 18.3398 79.1658 16.8945ZM148.678 32.0703C147.642 35.1172 144.869 34.5898 142.877 35.4101C140.806 36.2695 138.404 36.5234 136.119 35.8203C134.205 35.2539 132.506 34.4726 132.193 32.0898C132.037 30.957 131.763 29.8633 130.142 29.5508C129.068 29.3555 128.131 28.2812 127.252 27.4805C126.998 27.2656 126.939 26.5234 127.135 26.1914C128.033 24.5312 127.74 22.7539 127.935 21.0156C128.092 19.6094 128.658 18.2422 129.029 16.875C131.06 17.9883 130.963 19.6875 130.65 21.4648C131.959 21.1523 133.326 19.8047 133.365 18.75C133.385 18.4765 132.935 18.0859 132.623 17.9101C132.349 17.7734 131.939 17.8906 131.588 17.8906C131.549 17.7734 131.51 17.6562 131.451 17.5195C131.744 17.2461 131.998 16.8164 132.33 16.6992C134.303 16.0742 134.459 14.3164 134.928 12.7344C135.201 11.7969 135.435 10.8398 135.67 9.92186C137.662 10.1367 138.248 10.9765 138.053 13.0273C138.013 13.418 138.072 13.8086 138.072 14.1992C138.482 14.0625 138.951 13.9648 139.322 13.75C140.767 12.8906 142.193 12.2266 143.931 13.1445C145.103 13.7695 146.51 16.0937 146.158 17.4805C145.826 18.8086 145.24 20.0781 144.908 21.4062C144.752 22.0312 144.713 22.8516 145.006 23.3984C145.826 24.9609 144.849 27.1094 143.072 27.4414C141.549 27.7344 140.045 28.0664 138.56 28.4766C137.271 28.8281 136.763 29.7852 137.095 30.9375C137.428 32.1289 138.209 32.5195 139.537 32.2265C141.392 31.8359 143.248 31.4844 145.084 31.1133C145.377 31.0547 145.67 30.957 145.963 30.8594C147.916 30.1953 148.092 30.2734 148.678 32.0703L148.678 32.0703ZM137.174 17.8711C138.931 18.6133 140.357 17.6367 141.803 16.9531C142.115 16.8164 142.525 16.3867 142.486 16.1719C142.408 15.8594 142.037 15.5273 141.705 15.332C140.377 14.5703 139.342 15.5859 138.189 15.957C137.291 16.25 136.9 16.8945 137.174 17.8711ZM141.256 20.8008C141.158 20.7031 140.806 20.2148 140.709 20.2539C139.635 20.8008 138.502 21.3086 137.623 22.0898C137.271 22.4023 137.037 23.5937 138.189 23.789C139.361 24.0039 141.236 22.3047 141.256 20.8008L141.256 20.8008ZM129.771 27.1289C132.095 26.6211 132.642 25.3515 132.174 23.6133C130.318 23.418 129.459 24.6289 129.771 27.1289ZM118.56 38.9258C117.095 38.3398 116.217 37.3633 115.767 35.8789C115.474 34.9414 114.732 34.1406 114.303 33.2422C113.97 32.5781 113.795 31.8164 113.795 30.9766C114.4 31.4063 115.006 31.8359 115.592 32.2852L116.002 32.168L116.002 22.7344C114.849 22.8711 113.736 23.0078 112.545 23.1445C112.916 22.2656 113.267 21.4062 113.678 20.4492C114.4 20.6055 115.24 20.7812 116.06 20.957C116.158 20.0195 116.275 19.0625 116.334 18.1055C116.47 15.9766 116.627 13.8672 116.685 11.7383C116.744 9.96093 116.119 9.27733 114.381 9.39452C112.76 9.51171 111.138 9.80468 109.576 10.2344C107.935 10.6836 106.373 11.4258 104.752 11.9336C103.756 12.2266 102.779 12.0508 101.939 11.0742C105.474 10.332 108.385 8.02733 112.037 7.81249C113.599 7.71483 115.142 7.18749 116.705 6.95311C117.154 6.89452 117.935 6.99218 118.111 7.30468C118.814 8.49608 120.299 9.43358 119.517 11.2109C119.322 11.6601 119.537 12.3047 119.595 12.8711C119.615 13.0859 119.713 13.2812 119.713 13.4961C119.81 19.3945 119.888 25.2734 119.967 31.1719C119.986 32.7539 119.888 34.3359 120.006 35.8984C120.084 37.1875 119.615 38.125 118.56 38.9258L118.56 38.9258Z" fill="rgb(1,97,143)" fill-rule="nonzero" />
		<path id="矢量 96" d="M111.646 11.7775C113.248 13.6525 113.248 13.7892 111.686 15.8205C110.396 17.4806 110.416 17.8517 112.096 19.0236C112.994 19.6486 112.818 20.2736 112.33 20.9572C111.861 21.6212 111.256 22.1877 110.826 22.8712C110.592 23.2423 110.553 23.7306 110.455 24.1017C110.631 24.258 110.689 24.3166 110.768 24.3556C111.49 24.6291 112.682 24.3166 112.682 25.4103C112.682 25.9572 111.92 26.6798 111.334 26.9923C109.225 28.0861 107.076 29.1212 104.889 30.0197C104.4 30.215 103.561 29.9806 103.053 29.6681C102.389 29.2384 102.486 28.4962 102.896 27.8322C103.189 27.3634 103.404 26.8361 103.775 26.4455C104.518 25.6642 104.537 24.8439 103.697 24.1798C103.111 23.7111 102.486 23.3009 101.49 22.5783C102.779 21.7579 103.756 20.879 104.908 20.4689C105.963 20.0783 105.865 19.3947 105.846 18.6525C105.826 17.8517 105.299 17.6564 104.576 17.7345C103.893 17.7931 103.326 17.7931 103.131 16.8556C103.053 16.4845 102.369 16.2501 101.705 15.8009C103.404 14.9415 104.928 14.0236 106.568 13.3595C108.15 12.715 109.869 12.3244 111.646 11.7775L111.646 11.7775ZM170.221 28.4572C169.225 28.9455 168.307 29.3752 167.604 29.7267C167.311 32.0119 167.018 34.3166 166.725 36.6994C164.088 35.508 163.912 35.5275 163.658 32.7931C163.424 30.3712 163.619 27.9103 163.619 25.1173C164.537 25.8986 165.201 26.5822 166.002 27.09C166.393 27.3439 167.096 27.422 167.486 27.2462C168.619 26.7384 169.674 26.0744 170.729 25.4298C172.193 24.5314 174.928 25.6837 175.006 27.4025C175.084 28.965 174.83 30.547 174.42 32.09C174.713 32.4611 175.123 32.7931 175.26 33.2228C175.65 34.3361 174.361 35.547 173.131 35.3322C172.584 35.2345 171.979 35.254 171.432 35.3517C170.279 35.547 169.264 35.254 168.365 34.5509C167.701 34.0236 168.014 33.008 168.775 31.9337C169.478 30.9181 170.885 30.1759 170.221 28.4572L170.221 28.4572ZM157.721 36.1525C156.314 34.922 156.686 33.7892 156.881 32.715C157.428 29.8439 158.229 26.9924 157.76 24.0236C157.682 23.5549 157.369 23.1252 157.174 22.6759C156.744 22.9103 156.217 23.0666 155.885 23.3986C155.182 24.1213 154.557 24.9611 153.951 25.6838C153.756 25.215 153.326 24.6095 153.307 23.9845C153.287 22.9103 153.346 21.758 153.697 20.7619C154.615 18.2228 155.729 15.7424 156.764 13.2424C156.861 13.0275 156.979 12.8322 157.213 12.422C158.229 14.5705 159.342 16.4845 158.521 18.8674C159.049 19.1213 159.693 19.258 160.064 19.6486C160.455 20.0588 160.846 20.7228 160.826 21.2502C160.787 22.9299 160.553 24.6095 160.377 26.2892C160.143 28.5158 160.006 30.7619 159.537 32.9299C159.303 34.0431 158.404 35.0002 157.721 36.1525L157.721 36.1525ZM176.295 43.1056L176.295 50.9377L174.439 50.9377C174.303 49.7072 174.186 48.5353 174.01 47.0705C173.111 48.2423 172.389 49.1994 171.646 50.1564C170.689 51.4064 170.104 51.4064 169.166 50.0783C168.502 49.1408 167.857 48.1837 166.861 47.2853L166.861 49.5509C166.861 51.172 166.861 51.172 165.162 50.7033L165.162 43.047C166.236 42.4611 166.881 42.7931 167.486 43.7892C168.463 45.3712 169.615 46.8556 170.807 48.5353C171.92 46.9923 173.014 45.5666 173.99 44.0431C174.557 43.1447 175.182 42.715 176.295 43.1056ZM169.107 10.9572C168.521 10.6838 167.916 10.4103 167.33 10.1369C167.037 10.0002 166.764 9.82437 166.49 9.66812C166.686 9.35562 166.822 8.98453 167.057 8.75015C167.252 8.55484 167.76 8.55484 167.838 8.34C168.58 6.38687 169.752 7.42202 170.807 7.91031C172.037 8.47671 173.326 9.06265 172.564 10.9376C174.068 11.0548 175.338 11.1525 176.744 11.2697C175.885 12.7736 175.084 13.6134 173.248 13.6134C170.025 13.6134 166.822 14.0626 163.6 14.3752C163.15 14.4142 162.721 14.8244 162.271 14.8244C161.822 14.8244 161.393 14.5119 160.943 14.3361C161.197 14.0041 161.412 13.4767 161.725 13.3986C163.482 12.9689 165.26 12.6955 167.018 12.2853C167.74 12.1291 168.404 11.797 169.107 11.5431L169.107 10.9572L169.107 10.9572ZM80.3379 47.4611L80.3379 51.0158L78.1699 51.0158L78.1699 42.7736L80.3184 42.7736C80.3379 43.2228 80.377 43.6525 80.377 44.0822C80.3965 46.465 80.3965 46.465 83.0332 46.1525L83.0332 44.5119L83.0332 42.7736L85.3965 42.7736L85.3965 51.0158L83.0723 51.0158L83.0723 47.4611L80.3379 47.4611L80.3379 47.4611ZM163.521 46.8556C163.697 49.6486 161.822 50.9377 159.557 51.0353C156.686 51.172 155.162 49.6095 155.162 46.758C155.162 44.1994 156.725 42.7931 159.342 42.6564C161.549 42.5588 163.873 44.2775 163.521 46.8556L163.521 46.8556ZM157.486 46.8556L157.486 47.5002C157.506 49.1994 157.955 49.7853 159.244 49.7853C160.689 49.8048 161.236 49.1603 161.256 47.422C161.275 46.8166 161.275 46.2111 161.236 45.6056C161.139 44.297 160.553 43.8088 159.205 43.8283C157.994 43.8478 157.545 44.59 157.506 45.6642C157.467 46.0744 157.467 46.465 157.486 46.8556L157.486 46.8556ZM99.0293 47.1486L99.0293 42.7931L100.611 42.7931C100.611 45.3517 100.67 47.8713 100.572 50.3908C100.533 51.2892 99.9473 51.133 99.4395 50.6056C98.209 49.3556 96.9785 48.1252 95.7285 46.9142C95.4355 46.6213 95.1035 46.3673 94.5176 45.8595L94.5176 50.9962L93.0918 50.9962L93.0918 42.5392C93.7363 42.8517 94.3613 42.9689 94.752 43.34C96.0996 44.6291 97.3691 46.0158 98.6582 47.3439C98.7754 47.2853 98.8926 47.2267 99.0293 47.1486L99.0293 47.1486ZM101.881 50.6056C102.936 48.2424 103.971 45.84 105.104 43.4963C105.279 43.1447 105.865 42.8127 106.295 42.7931C106.725 42.7736 107.428 42.9884 107.584 43.3205C108.795 45.7619 109.889 48.2619 111.041 50.7424C109.166 51.3674 108.99 51.2697 108.111 49.7463C107.896 49.3752 107.311 49.0236 106.861 49.0041C105.592 48.9064 104.244 48.7111 103.775 50.5275C103.697 50.8205 102.682 50.8595 102.096 51.0353C102.018 50.8986 101.939 50.7619 101.881 50.6056ZM105.045 47.6564L107.232 47.6564C106.861 46.8166 106.529 46.1134 106.1 45.1369C105.67 46.1525 105.357 46.8752 105.045 47.6564Z" fill="rgb(1,97,143)" fill-rule="nonzero" />
		<path id="矢量 97" d="M100.396 13.0273C102.037 16.0352 101.627 19.1406 100.885 22.2852C100.572 23.6133 99.8496 25.0781 100.123 26.2695C100.475 27.7539 99.7714 29.1211 100.201 30.5664C100.436 31.3477 100.103 32.2852 100.006 33.2617C98.4433 32.9687 98.541 31.7773 98.5214 30.9961C98.4824 29.1406 98.6972 27.2656 98.873 25.4102C99.166 22.0898 99.498 18.7891 99.8105 15.4687C99.8886 14.6289 99.8691 13.7891 99.9082 12.9492C100.064 12.9883 100.24 13.0078 100.396 13.0273ZM139.244 42.7539L145.24 42.7539C145.436 43.5547 145.299 43.9649 144.4 43.8867C143.404 43.8086 142.408 43.8672 141.432 43.8672L141.432 46.2695L144.225 46.2695C144.283 47.2656 144.283 47.2656 141.353 47.4219L141.353 49.8242L145.475 49.8242C145.748 50.7031 145.611 51.0742 144.713 51.0742C142.916 51.0352 141.139 51.0547 139.244 51.0547L139.244 42.7539L139.244 42.7539ZM129.361 43.8867L125.572 43.8867L125.572 46.25L128.385 46.25C128.541 47.3047 128.541 47.3047 125.572 47.4219L125.572 49.9023C126.705 49.9023 127.779 49.9414 128.873 49.8828C129.693 49.8438 129.908 50.1758 129.635 50.9766L123.443 50.9766L123.443 42.7734L129.381 42.7734C129.361 43.1055 129.361 43.457 129.361 43.8867L129.361 43.8867ZM76.705 49.6094C76.3144 50.2539 76.1972 50.8008 75.8847 50.9375C73.9316 51.8359 70.3378 50.3125 69.5761 48.3203C68.6191 45.8398 70.6699 42.7539 73.3066 42.7148C74.0097 42.6953 74.7324 42.6172 75.3964 42.7539C75.8261 42.8516 76.1777 43.3203 76.4707 43.8086C74.6543 43.6914 72.9941 43.6523 72.0175 45.3906C71.373 46.543 71.4902 47.7539 72.2324 48.8477C72.8769 49.7656 74.2246 50.0195 76.705 49.6094L76.705 49.6094ZM154.322 49.7266C153.951 50.2734 153.756 50.8984 153.463 50.9375C151.666 51.2305 149.889 51.0742 148.385 49.9024C147.057 48.8867 146.685 47.4609 147.135 45.9375C147.603 44.3164 148.678 43.086 150.416 42.7344C151.295 42.5586 152.252 42.6172 153.15 42.7344C153.541 42.793 153.873 43.3008 154.127 43.8086C152.525 43.75 150.963 43.5742 149.986 44.9414C149.537 45.5664 149.342 46.4844 149.361 47.2656C149.42 49.3555 150.787 50.0391 154.322 49.7266L154.322 49.7266ZM117.603 43.9649L115.084 43.9649C115.064 43.5352 115.045 43.1836 115.025 42.7539L122.135 42.7539C122.252 43.8477 122.252 43.8477 119.713 44.0039L119.713 50.957L117.584 50.957C117.603 48.6719 117.603 46.3672 117.603 43.9649L117.603 43.9649ZM133.541 49.8242C134.791 49.8242 135.826 49.7852 136.861 49.8438C137.154 49.8633 137.408 50.1758 137.682 50.3516C137.408 50.5664 137.154 50.9375 136.881 50.957C135.064 51.0156 133.228 50.9766 131.334 50.9766L131.334 43.0273L133.521 43.0273C133.541 45.2148 133.541 47.4219 133.541 49.8242L133.541 49.8242ZM90.4746 50.9766L88.2089 50.9766L88.2089 42.8711L90.4746 42.8711L90.4746 50.9766ZM173.717 20.293C172.623 23.4766 172.369 23.5742 169.186 22.9688C167.564 22.6563 166.393 22.0313 165.807 20.3516C168.482 19.1992 171.061 19.9219 173.717 20.293L173.717 20.293ZM101.705 32.5C105.807 32.7734 109.225 30.6641 113.131 29.8047C110.592 31.7969 108.111 33.4961 105.143 34.3945C102.838 35.0781 102.623 35 101.705 32.5ZM173.072 18.75C170.65 18.9258 168.756 17.832 166.783 16.2695C167.389 15.918 167.877 15.4883 168.424 15.3516C169.967 14.9609 171.568 15.0977 172.877 15.9961C173.893 16.7187 173.717 17.793 173.072 18.75L173.072 18.75Z" fill="rgb(1,97,143)" fill-rule="nonzero" />
	</g>
</svg>
