<svg viewBox="0 0 200 64" xmlns="http://www.w3.org/2000/svg" xmlns:xlink="http://www.w3.org/1999/xlink" width="200.000000" height="64.000000" fill="none">
	<rect id="中国广电 1" width="200.000000" height="64.000000" x="0.000000" y="0.000000" />
	<path id="矢量 82" d="M31.9433 29.304C31.9433 29.304 32.0435 28.7821 32.5634 28.8828C32.6636 28.361 33.1827 28.4618 33.2838 27.9398L34.322 28.1422C37.153 33.0249 43.0155 41.7475 53.5344 48.6676C58.3252 51.7652 62.7967 53.719 66.3309 54.9472C70.3509 50.8558 73.4322 46.0403 75.0571 40.399C79.1105 24.9407 71.3378 9.34889 58.0221 2.96774C60.9363 4.61773 63.2311 6.68879 64.5879 8.03561C65.0068 8.65827 64.9065 9.1809 64.2864 9.60128C63.6663 10.0223 63.1479 9.92157 62.628 9.82074C60.3332 7.74968 57.9381 6.20051 55.1242 4.02794C51.6909 2.27637 49.1949 1.2499 46.6989 0.222552L45.6606 0.020203C45.1415 -0.0805646 44.0022 0.238916 42.964 0.0366345C45.4593 1.06392 48.3742 2.71385 51.7072 4.98644C56.5976 7.56302 60.2499 10.9809 62.9629 13.6754C63.4819 13.7762 63.8005 14.9215 63.1804 15.3425C63.0802 15.8644 61.9408 16.184 61.522 15.5614C58.8084 12.8676 54.6377 9.3482 49.8476 6.25061C45.0575 3.15302 41.0041 1.8225 37.4699 0.593688C36.8504 1.01475 35.7112 1.33429 35.0911 1.75535C38.2066 2.36163 42.1597 4.21317 46.5309 6.6881C53.7168 11.3356 58.625 16.6223 61.2377 19.8386C61.7567 19.9394 62.0753 21.0847 61.4552 21.5057C61.3549 22.0277 60.2156 22.3471 59.7968 21.7246C56.7653 17.8856 51.7569 13.12 44.5717 8.47329C39.6806 5.89671 36.2474 4.14526 32.1932 2.81562C31.5742 3.23649 31.055 3.13497 30.4349 3.55603C33.9692 4.78491 37.9223 6.63725 42.1932 9.63488C51.3553 15.2074 57.0002 22.2627 59.9315 26.6243L59.6299 28.1899C59.0106 28.6111 58.4907 28.5103 57.9716 28.4087C54.5212 23.9463 48.8763 16.8918 39.7142 11.3185C35.4433 8.32167 30.971 6.36862 27.4367 5.13893L25.5771 6.4021C30.1496 7.83339 37.637 10.9137 45.0397 17.2284C51.9242 23.4417 55.5929 29.5703 58.0043 33.8305C58.0043 33.8305 57.904 34.3523 57.2847 34.7733C56.6646 35.1945 56.1454 35.0929 55.6263 34.9921C52.8956 29.5867 46.9328 21.3868 36.4139 14.4667C31.623 11.3692 27.1516 9.41529 23.6173 8.18642C23.6173 8.18642 24.2374 7.7653 24.3377 7.24266C18.4588 12.5973 13.8358 19.8221 13.3672 27.854C11.2908 44.2372 22.7982 60.015 38.8943 63.1462L40.4517 63.4493C38.3752 63.0455 35.779 62.5408 33.3839 60.9915C29.9498 59.2401 27.2362 56.5463 25.8794 55.1987C25.4605 54.576 25.5616 54.0534 26.181 53.6323C26.8003 53.212 27.3202 53.3127 27.8393 53.4143C29.7153 54.8628 32.01 56.9331 35.9632 58.7853C39.816 61.1595 43.2494 62.9103 46.3647 63.5166C46.3647 63.5166 45.7446 63.9376 44.7064 63.7352L45.7446 63.9376C46.7835 64.14 47.922 63.8204 48.5422 63.3994C45.5271 62.2721 41.9928 61.0417 38.1406 58.6683C33.3498 55.57 29.598 52.6731 26.8851 49.9802C26.4662 49.3568 26.5664 48.8341 26.6667 48.313L27.1858 48.4138L27.2861 47.8912C27.3864 47.3701 28.5256 47.0498 28.9444 47.6724C31.6581 50.3668 35.3089 53.7847 40.7191 56.4621C45.51 59.5604 50.0825 60.9916 53.6168 62.2207C52.9974 62.6408 51.9585 62.4393 51.3392 62.8603L52.8964 63.1635C54.655 62.4221 56.3133 62.2033 58.1722 60.9401C57.0338 61.2597 56.4136 61.6807 55.2743 62.0009C51.7401 60.7721 47.6867 59.4417 43.4158 56.4449C36.1296 52.3191 31.7413 47.1334 28.7098 43.2944C28.2909 42.6717 28.4914 41.6273 28.5924 41.1053C28.6927 40.5835 29.2118 40.6842 29.7309 40.7859L30.7692 40.9874C32.9637 43.5802 35.9952 47.4192 40.685 51.0395C42.1421 51.8644 43.4996 53.2113 45.4759 54.1378C50.2659 57.2362 54.3193 58.5666 58.3734 59.8964L58.9928 59.4752C55.4585 58.2464 51.5054 56.394 47.6532 54.0198C39.1106 48.0254 33.3654 41.4927 30.0153 36.5086L29.5964 35.8858L29.6968 35.364L30.2158 35.4647C30.8352 35.0437 31.3543 35.1452 31.8742 35.2461C35.3246 39.7084 41.4886 46.8637 50.1316 52.3363C54.4034 55.3339 58.4559 56.6643 61.89 58.4151L62.409 58.5158L64.2678 57.2533C59.6954 55.8214 52.2079 52.7409 44.8045 46.427C37.8228 40.7373 33.736 33.985 31.9433 29.304L31.9433 29.304Z" fill="rgb(18,150,219)" fill-rule="nonzero" />
	<path id="矢量 83" d="M90.5248 15.2096L90.5116 21.7641L115.91 21.7751L115.91 24.4102L88.317 24.4102C88.317 24.4102 87.4436 24.1789 87.3512 23.347L87.3512 13.73C87.3512 13.73 87.2595 12.6206 88.3637 12.6206L115.91 12.6206L115.91 15.2096M154.816 12.6206L154.816 24.4563L157.99 24.4563L157.99 15.5799L179.42 24.4563L182.686 24.4563L182.686 12.6206L179.467 12.6206L179.467 21.1743L157.897 12.6206L154.816 12.6206L154.816 12.6206ZM87.3494 30.0038L182.686 30.0038L182.686 32.0015L87.3494 32.0015L87.3494 30.0038L87.3494 30.0038ZM147.458 12.6206C149.297 12.6206 149.022 13.6839 149.022 13.6839L149.022 16.7815C148.93 17.8908 147.826 17.6424 147.826 17.6424L147.826 18.515C148.93 18.4001 149.022 19.0931 149.022 19.0931L149.022 23.3C148.884 24.1789 147.826 24.4103 147.826 24.4103L121.061 24.4103L121.061 12.6207L147.458 12.6207L147.458 12.6206ZM123.958 14.9323L123.958 21.8205L146.124 21.8205C146.124 21.8205 146.493 21.6362 146.493 21.0814L146.493 19.7869C146.493 19.7869 146.401 19.2322 145.848 19.1853L126.449 19.1931L126.457 16.9659L146.171 16.9659C146.171 16.9659 146.508 16.9354 146.493 16.5346L146.493 15.4862C146.493 15.4862 146.6 14.9933 146.11 14.9315L123.958 14.9315L123.958 14.9323L123.958 14.9323ZM87.5765 48.962L87.5765 38.0983L96.005 38.0983L96.005 34.5342L99.2992 34.5342L99.2992 38.0983L107.728 38.0983L107.728 45.4856C107.791 47.862 106.629 49.0205 104.24 48.962L99.2999 48.962L99.2999 54.7853L96.0057 54.7853L96.0057 48.962L87.5765 48.962L87.5765 48.962ZM90.5792 47.0503L96.0041 47.0503L96.0041 40.0098L90.5792 40.0098L90.5792 47.0503L90.5792 47.0503ZM104.724 40.0098L99.2991 40.0098L99.2991 47.0503L103.271 47.0503C104.239 47.0503 104.724 46.5871 104.724 45.6597L104.724 40.0098L104.724 40.0098ZM112.183 54.7236L112.183 35.5083L132.82 35.5083L132.82 51.6097C132.883 53.744 131.754 54.7822 129.429 54.723L112.183 54.723L112.183 54.7236L112.183 54.7236ZM115.284 53.0339L128.072 53.0339C129.235 53.0339 129.783 52.5298 129.719 51.5206L129.719 37.3764L115.284 37.3764L115.284 53.0339L115.284 53.0339ZM116.349 40.9357L116.349 39.1559L128.556 39.1559L128.556 40.9357L123.81 40.9357L123.81 43.6044L128.072 43.6044L128.072 45.3831L123.81 45.3831L123.81 49.2972L128.847 49.2972L128.847 51.077L116.059 51.077L116.059 49.2972L120.709 49.2972L120.709 45.3831L116.737 45.3831L116.737 43.6044L120.709 43.6044L120.709 40.9357L116.349 40.9357L116.349 40.9357ZM125.747 48.7636C125.553 47.8133 125.263 46.8941 124.875 46.0058L126.91 46.0058C127.426 46.777 127.781 47.6965 127.975 48.7636L125.747 48.7636ZM138.439 36.9694L146.964 36.9694L146.964 34.6312L150.549 34.6312L150.549 36.9693L158.397 36.9693L158.397 39.209L141.734 39.209L141.787 54.7229L138.439 54.7229L138.439 36.9694L138.439 36.9694ZM161.787 49.8925L161.787 36.7982L169.635 36.7982L169.635 34.6312L172.832 34.6312L172.832 36.7982L180.873 36.7982L180.873 46.1894C181.002 48.7174 179.711 49.9526 176.998 49.8918L172.833 49.8918L172.833 51.2455C172.768 52.5706 173.381 53.2033 174.674 53.1425L178.839 53.1425C180.002 53.2033 180.549 52.7518 180.486 51.7886L180.486 50.9753L182.908 50.9753L182.908 51.9682C182.972 53.9549 181.874 54.9175 179.614 54.858L173.413 54.858C170.829 54.9175 169.571 53.7745 169.635 51.4259L169.635 49.8909L161.787 49.8909L161.787 49.8925L161.787 49.8925ZM164.693 38.6951L164.693 42.3067L169.634 42.3067L169.634 38.6951L164.693 38.6951ZM164.693 47.9964L169.634 47.9964L169.634 44.2044L164.693 44.2044L164.693 47.9964ZM177.869 38.6951L172.832 38.6951L172.832 42.3067L177.869 42.3067L177.869 38.6951ZM176.125 47.9964C177.352 48.0574 177.933 47.5449 177.869 46.4614L177.869 44.2035L172.832 44.2035L172.832 47.9957L176.125 47.9957L176.125 47.9964L176.125 47.9964Z" fill="rgb(18,150,219)" fill-rule="nonzero" />
</svg>
